<svg width="92" height="29" viewBox="0 0 92 29" fill="none" xmlns="http://www.w3.org/2000/svg">
<path d="M6.82514 1.29297H84.4611C87.6978 1.29297 90.2862 3.85786 90.2862 6.97852V22.021C90.2862 25.1417 87.6978 27.7066 84.4611 27.7066H6.82514C3.58842 27.7066 1 25.1417 1 22.021V6.97852C1 3.85786 3.58842 1.29297 6.82514 1.29297Z" fill="black" stroke="white" stroke-width="2"/>
<path d="M24.7073 13.7328C24.6913 11.9762 26.1678 11.1216 26.2353 11.0818C25.3991 9.88112 24.103 9.71707 23.6476 9.70399C22.5591 9.59117 21.5032 10.3455 20.9487 10.3455C20.3831 10.3455 19.5292 9.71489 18.6089 9.73342C17.4247 9.75141 16.3168 10.4267 15.7091 11.4753C14.4551 13.6135 15.3904 16.7556 16.5918 18.4839C17.1928 19.3308 17.895 20.2754 18.8142 20.2421C19.7135 20.2061 20.0494 19.678 21.1346 19.678C22.2099 19.678 22.5253 20.2421 23.4628 20.2209C24.4279 20.2061 25.0355 19.3706 25.6155 18.5166C26.31 17.5469 26.5889 16.591 26.6 16.5419C26.5778 16.5343 24.7262 15.8377 24.7073 13.7328ZM22.9365 8.56706C23.4201 7.97134 23.7511 7.16089 23.6592 6.33844C22.9592 6.36896 22.0837 6.81534 21.5796 7.39798C21.1335 7.91139 20.7351 8.75292 20.838 9.5443C21.6244 9.60207 22.4318 9.15351 22.9365 8.56706Z" fill="white"/>
<path d="M37.7365 20.5293H36.4918L35.8099 18.3874H33.44L32.7905 20.5293H31.5786L33.9272 13.2372H35.3775L37.7365 20.5293ZM35.6044 17.4887L34.9878 15.5846C34.9226 15.3901 34.7998 14.932 34.62 14.2109H34.5981C34.5257 14.521 34.4101 14.9791 34.2517 15.5846L33.6455 17.4887H35.6044ZM43.7645 17.8356C43.7645 18.7298 43.5217 19.4367 43.0355 19.9556C42.6003 20.4175 42.0593 20.6482 41.4142 20.6482C40.7176 20.6482 40.2166 20.4 39.9124 19.9024V22.6614H38.7439V16.9994C38.7439 16.4377 38.7291 15.8618 38.7006 15.2712H39.7283L39.7935 16.1046H39.8154C40.2051 15.4766 40.7965 15.1627 41.5902 15.1627C42.2106 15.1627 42.7286 15.4076 43.1429 15.898C43.5567 16.3895 43.7645 17.035 43.7645 17.8356ZM42.574 17.8783C42.574 17.3665 42.4589 16.9446 42.2276 16.612C41.9749 16.2662 41.6356 16.0931 41.2103 16.0931C40.922 16.0931 40.66 16.1895 40.426 16.3797C40.1914 16.5714 40.0379 16.8219 39.9661 17.132C39.9341 17.248 39.9159 17.3674 39.9119 17.4876V18.3649C39.9119 18.7468 40.0292 19.0696 40.2638 19.3337C40.4983 19.5967 40.8031 19.7287 41.178 19.7287C41.6181 19.7287 41.9607 19.5583 42.2057 19.2202C42.4512 18.8811 42.574 18.4339 42.574 17.8783ZM49.8138 17.8356C49.8138 18.7298 49.571 19.4367 49.0848 19.9556C48.6491 20.4175 48.1087 20.6482 47.463 20.6482C46.7664 20.6482 46.2654 20.4 45.9612 19.9024V22.6614H44.7927V16.9994C44.7927 16.4377 44.7779 15.8618 44.7494 15.2712H45.7771L45.8423 16.1046H45.8642C46.2534 15.4766 46.8448 15.1627 47.639 15.1627C48.2589 15.1627 48.7768 15.4076 49.1923 15.898C49.6055 16.3895 49.8138 17.035 49.8138 17.8356ZM48.6228 17.8783C48.6228 17.3665 48.5071 16.9446 48.2758 16.612C48.0232 16.2662 47.685 16.0931 47.2597 16.0931C46.9714 16.0931 46.7094 16.1895 46.4743 16.3797C46.2397 16.5714 46.0867 16.8219 46.0149 17.132C45.9793 17.2767 45.9601 17.3945 45.9601 17.4876V18.3649C45.9601 18.7468 46.078 19.0696 46.3115 19.3337C46.5461 19.5961 46.8508 19.7287 47.2268 19.7287C47.6675 19.7287 48.01 19.5583 48.2545 19.2202C48.5 18.8811 48.6228 18.4339 48.6228 17.8783ZM56.5773 18.4838C56.5773 19.1046 56.3603 19.6093 55.9289 19.9989C55.4543 20.4241 54.7916 20.6373 53.9421 20.6373C53.1572 20.6373 52.528 20.486 52.0533 20.183L52.3235 19.2093C52.836 19.5129 53.3989 19.6641 54.0117 19.6641C54.4524 19.6641 54.7949 19.5644 55.0394 19.3665C55.2844 19.1682 55.4082 18.903 55.4082 18.572C55.4082 18.2756 55.3057 18.0274 55.1046 17.8252C54.9023 17.6235 54.568 17.4356 54.0983 17.263C52.8212 16.7868 52.1821 16.0903 52.1821 15.1742C52.1821 14.5758 52.4079 14.0859 52.8585 13.7029C53.309 13.3204 53.9065 13.1292 54.6497 13.1292C55.3134 13.1292 55.8664 13.2448 56.3055 13.4755L56.0122 14.4279C55.599 14.2043 55.1325 14.0925 54.6108 14.0925C54.1986 14.0925 53.8752 14.1939 53.6439 14.3955C53.4493 14.5758 53.3507 14.7955 53.3507 15.0564C53.3507 15.344 53.463 15.5829 53.6867 15.7703C53.8807 15.9429 54.2348 16.1309 54.7467 16.3325C55.3748 16.5857 55.8363 16.8805 56.1317 17.2191C56.4293 17.5578 56.5773 17.9802 56.5773 18.4838ZM60.4507 16.1479H59.1627V18.7008C59.1627 19.3501 59.3896 19.674 59.8445 19.674C60.0534 19.674 60.2266 19.6564 60.3636 19.6197L60.3959 20.5068C60.1657 20.5929 59.8626 20.6362 59.4872 20.6362C59.0257 20.6362 58.665 20.4953 58.4047 20.2137C58.1454 19.932 58.015 19.4602 58.015 18.7961V16.1457H57.2477V15.269H58.015V14.3062L59.1627 13.9599V15.269H60.4507V16.1479ZM66.2507 17.8569C66.2507 18.6652 66.0194 19.3287 65.5579 19.8477C65.075 20.3819 64.4327 20.6482 63.6319 20.6482C62.8591 20.6482 62.2446 20.3923 61.7864 19.8811C61.3282 19.3687 61.0991 18.7233 61.0991 17.9446C61.0991 17.1298 61.3359 16.4624 61.8078 15.9435C62.2808 15.424 62.9177 15.1643 63.7185 15.1643C64.4902 15.1643 65.1101 15.4207 65.5793 15.9325C66.0276 16.429 66.2507 17.0701 66.2507 17.8569ZM65.0394 17.8838C65.0394 17.4021 64.9353 16.989 64.7264 16.6432C64.4814 16.2257 64.1307 16.0169 63.6763 16.0169C63.2082 16.0169 62.8492 16.2257 62.6048 16.6432C62.3954 16.989 62.2912 17.4093 62.2912 17.9057C62.2912 18.3879 62.3954 18.8022 62.6048 19.1468C62.8574 19.5644 63.2099 19.7731 63.6664 19.7731C64.1131 19.7731 64.4633 19.56 64.7166 19.1364C64.9314 18.7824 65.0394 18.3665 65.0394 17.8838ZM70.0507 16.2986C69.9291 16.2766 69.8058 16.2658 69.6823 16.2662C69.2713 16.2662 68.9534 16.4208 68.7297 16.732C68.5357 17.006 68.4381 17.3523 68.4381 17.7704V20.5293H67.2696V16.9271C67.2706 16.3751 67.2593 15.8232 67.2356 15.2717H68.2534L68.2962 16.2777H68.3285C68.4524 15.932 68.6464 15.6531 68.9128 15.4443C69.1566 15.2619 69.4529 15.1631 69.7574 15.1627C69.8654 15.1627 69.963 15.1703 70.0496 15.184L70.0507 16.2986ZM75.2768 17.6515C75.2797 17.8291 75.2654 18.0065 75.234 18.1813H71.7284C71.7415 18.7008 71.9114 19.0986 72.237 19.3726C72.5324 19.617 72.9145 19.7397 73.3836 19.7397C73.9027 19.7397 74.3762 19.6575 74.8021 19.4915L74.9852 20.3019C74.4875 20.5189 73.8999 20.6268 73.2219 20.6268C72.4064 20.6268 71.7662 20.3868 71.3003 19.9079C70.8355 19.4285 70.6026 18.7841 70.6026 17.9769C70.6026 17.1846 70.8191 16.5243 71.2526 15.9977C71.7065 15.4355 72.3198 15.1544 73.0915 15.1544C73.8495 15.1544 74.4234 15.4355 74.8131 15.9977C75.1216 16.4432 75.2768 16.9956 75.2768 17.6515ZM74.1625 17.3484C74.1707 17.0016 74.094 16.703 73.9356 16.4503C73.7333 16.1249 73.422 15.9627 73.0049 15.9627C72.6229 15.9627 72.3116 16.121 72.0748 16.4388C71.8802 16.6914 71.7645 16.995 71.7289 17.3473L74.1625 17.3484Z" fill="white"/>
<path d="M33.103 10.6594C32.778 10.6594 32.4969 10.6435 32.2628 10.6166V7.09109C32.5901 7.04054 32.9209 7.01563 33.2521 7.01657C34.5922 7.01657 35.2094 7.67576 35.2094 8.75029C35.2094 9.98976 34.4804 10.6594 33.103 10.6594ZM33.2993 7.46863C33.1184 7.46863 32.9644 7.47959 32.8367 7.50589V10.1859C32.9057 10.1969 33.0384 10.2018 33.2247 10.2018C34.1028 10.2018 34.6026 9.70209 34.6026 8.76618C34.6026 7.93165 34.1505 7.46863 33.2993 7.46863ZM37.1327 10.6862C36.3774 10.6862 35.8879 10.1224 35.8879 9.35688C35.8879 8.55906 36.3878 7.99028 37.1754 7.99028C37.9197 7.99028 38.4201 8.52728 38.4201 9.31468C38.4201 10.1224 37.9044 10.6862 37.1327 10.6862ZM37.1546 8.41001C36.7397 8.41001 36.4738 8.79796 36.4738 9.34044C36.4738 9.8725 36.7452 10.2604 37.1491 10.2604C37.553 10.2604 37.8244 9.84565 37.8244 9.32948C37.8244 8.80344 37.5585 8.41001 37.1546 8.41001ZM42.7271 8.04343L41.9186 10.6276H41.3919L41.057 9.50537C40.9738 9.23087 40.9044 8.95234 40.8493 8.67084H40.8383C40.7961 8.95249 40.7161 9.23468 40.6312 9.50537L40.2749 10.6276H39.7427L38.9819 8.04343H39.5722L39.8649 9.27194C39.934 9.56455 39.9921 9.84072 40.0403 10.1015H40.0513C40.0935 9.88401 40.1625 9.61222 40.2639 9.27742L40.6312 8.04398H41.0992L41.4506 9.25112C41.5355 9.54373 41.6046 9.83085 41.6583 10.1021H41.6736C41.7109 9.83633 41.7696 9.55414 41.849 9.25112L42.1631 8.04398L42.7271 8.04343ZM45.7033 10.6276H45.1288V9.14372C45.1288 8.68673 44.9535 8.45769 44.6076 8.45769C44.2672 8.45769 44.0332 8.75029 44.0332 9.09057V10.6276H43.4588V8.78207C43.4588 8.55358 43.4533 8.30864 43.4374 8.04289H43.9428L43.9696 8.4418H43.9855C44.1401 8.16563 44.4536 7.99028 44.8049 7.99028C45.3475 7.99028 45.7038 8.40508 45.7038 9.08016L45.7033 10.6276ZM47.2873 10.6276H46.7123V6.85767H47.2873V10.6276ZM49.3815 10.6862C48.6268 10.6862 48.1368 10.1224 48.1368 9.35688C48.1368 8.55906 48.6367 7.99028 49.4237 7.99028C50.1686 7.99028 50.6685 8.52728 50.6685 9.31468C50.669 10.1224 50.1527 10.6862 49.3815 10.6862ZM49.4029 8.41001C48.988 8.41001 48.7222 8.79796 48.7222 9.34044C48.7222 9.8725 48.994 10.2604 49.3969 10.2604C49.8014 10.2604 50.0721 9.84565 50.0721 9.32948C50.0727 8.80344 49.8074 8.41001 49.4029 8.41001ZM52.9332 10.6276L52.8916 10.33H52.8762C52.7008 10.5695 52.4448 10.6862 52.1204 10.6862C51.6572 10.6862 51.3284 10.3618 51.3284 9.92565C51.3284 9.28783 51.8814 8.95797 52.8389 8.95797V8.91029C52.8389 8.57002 52.6586 8.3996 52.3023 8.3996C52.0475 8.3996 51.8239 8.46371 51.6271 8.59139L51.5103 8.21385C51.7493 8.0648 52.0475 7.99028 52.3977 7.99028C53.073 7.99028 53.4139 8.34645 53.4139 9.05934V10.0111C53.4139 10.272 53.4254 10.4741 53.4512 10.6281L52.9332 10.6276ZM52.8543 9.34044C52.2163 9.34044 51.8962 9.49496 51.8962 9.86154C51.8962 10.1328 52.0612 10.2654 52.2903 10.2654C52.5824 10.2654 52.8543 10.0424 52.8543 9.73935V9.34044ZM56.2032 10.6276L56.1763 10.2128H56.1604C55.9954 10.5262 55.7181 10.6862 55.3306 10.6862C54.7074 10.6862 54.2459 10.1383 54.2459 9.36729C54.2459 8.55906 54.7244 7.98974 55.3777 7.98974C55.7236 7.98974 55.9686 8.10645 56.1067 8.34097H56.1182V6.85767H56.6931V9.93113C56.6931 10.181 56.6992 10.415 56.7145 10.6276H56.2032ZM56.1182 9.10701C56.1182 8.74536 55.8787 8.43686 55.5131 8.43686C55.0872 8.43686 54.8269 8.8144 54.8269 9.34592C54.8269 9.86702 55.0971 10.2237 55.5016 10.2237C55.8628 10.2237 56.1182 9.90976 56.1182 9.5377V9.10701ZM60.3385 10.6862C59.5838 10.6862 59.0944 10.1224 59.0944 9.35688C59.0944 8.55906 59.5942 7.99028 60.3813 7.99028C61.1262 7.99028 61.626 8.52728 61.626 9.31468C61.6266 10.1224 61.1108 10.6862 60.3385 10.6862ZM60.3599 8.41001C59.9456 8.41001 59.6797 8.79796 59.6797 9.34044C59.6797 9.8725 59.951 10.2604 60.3544 10.2604C60.7589 10.2604 61.0297 9.84565 61.0297 9.32948C61.0308 8.80344 60.765 8.41001 60.3599 8.41001ZM64.7151 10.6276H64.1401V9.14372C64.1401 8.68673 63.9648 8.45769 63.6189 8.45769C63.2785 8.45769 63.045 8.75029 63.045 9.09057V10.6276H62.4701V8.78207C62.4701 8.55358 62.4646 8.30864 62.4487 8.04289H62.9541L62.9809 8.4418H62.9968C63.1508 8.16563 63.4649 7.98974 63.8157 7.98974C64.3583 7.98974 64.7151 8.40453 64.7151 9.07961V10.6276ZM68.5797 8.47412H67.9478V9.72894C67.9478 10.0484 68.0585 10.2078 68.2821 10.2078C68.3835 10.2078 68.4685 10.1969 68.537 10.181L68.5529 10.6172C68.4416 10.6599 68.2925 10.6813 68.1073 10.6813C67.6545 10.6813 67.3838 10.4314 67.3838 9.77715V8.47412H67.0067V8.04343H67.3838V7.57L67.9478 7.39959V8.04289H68.5797V8.47412ZM71.6206 10.6276H71.0467V9.15468C71.0467 8.69221 70.8719 8.45823 70.5255 8.45823C70.2279 8.45823 69.9505 8.66043 69.9505 9.06975V10.6276H69.3767V6.85767H69.9505V8.41001H69.962C70.1429 8.12837 70.4049 7.98974 70.7392 7.98974C71.2862 7.98974 71.6206 8.41495 71.6206 9.09057V10.6276ZM74.736 9.47359H73.0122C73.0232 9.96291 73.3471 10.2391 73.8267 10.2391C74.0815 10.2391 74.3161 10.1963 74.5233 10.1169L74.6126 10.5158C74.3682 10.6221 74.0804 10.6752 73.7455 10.6752C72.9371 10.6752 72.4586 10.1646 72.4586 9.37277C72.4586 8.58043 72.9486 7.9848 73.6809 7.9848C74.3413 7.9848 74.7557 8.47412 74.7557 9.21331C74.7594 9.30055 74.7528 9.38791 74.736 9.47359ZM74.2092 9.06427C74.2092 8.66536 74.0081 8.38371 73.6409 8.38371C73.3109 8.38371 73.05 8.67084 73.0127 9.06427H74.2092Z" fill="white"/>
</svg>
