<svg width="92" height="29" viewBox="0 0 92 29" fill="none" xmlns="http://www.w3.org/2000/svg">
<path d="M6.82514 1.29297H84.4611C87.6978 1.29297 90.2862 3.85786 90.2862 6.97852V22.021C90.2862 25.1417 87.6978 27.7066 84.4611 27.7066H6.82514C3.58842 27.7066 1 25.1417 1 22.021V6.97852C1 3.85786 3.58842 1.29297 6.82514 1.29297Z" fill="black" stroke="white" stroke-width="2"/>
<path d="M35.1545 9.52074C35.1667 9.70863 35.1401 9.897 35.0763 10.0746C35.0126 10.2522 34.913 10.4154 34.7834 10.5545C34.5929 10.7428 34.3579 10.882 34.0992 10.9599C33.8405 11.0377 33.5662 11.0518 33.3006 11.0007C33.035 10.9497 32.7865 10.8351 32.577 10.6673C32.3675 10.4995 32.2037 10.2835 32.1 10.0387C31.9963 9.79382 31.9559 9.52766 31.9825 9.26386C32.0091 9.00006 32.1019 8.74679 32.2526 8.52658C32.4032 8.30637 32.6071 8.12603 32.846 8.00161C33.085 7.87719 33.3516 7.81255 33.6222 7.81342C33.8428 7.8162 34.0597 7.86973 34.2553 7.96969C34.4443 8.047 34.6087 8.17253 34.7313 8.33321L34.466 8.59312C34.3664 8.46945 34.2372 8.37163 34.09 8.30824C33.9427 8.24486 33.7818 8.21785 33.6214 8.22959C33.4616 8.22296 33.3024 8.25228 33.156 8.3153C33.0096 8.37831 32.8799 8.47335 32.7768 8.59312C32.5393 8.82706 32.406 9.14358 32.406 9.47352C32.406 9.80346 32.5393 10.12 32.7768 10.3539C33.0067 10.5674 33.3053 10.696 33.6214 10.7175C33.7891 10.7243 33.9563 10.6954 34.1115 10.6326C34.2666 10.5698 34.4059 10.4747 34.5198 10.3539C34.6044 10.2734 34.6716 10.177 34.7172 10.0704C34.7628 9.96388 34.7859 9.84938 34.7851 9.73384H33.624V9.31766H35.1596V9.51907L35.1545 9.52074ZM37.5851 8.22708H36.1587V9.21069H37.4793V9.57422H36.1587V10.5578H37.5851V10.9715H35.7389V7.8669H37.5877L37.5851 8.22708ZM39.3281 10.9715H38.9058V8.23126H38.0074V7.86773H40.2256V8.23126H39.3272L39.3281 10.9715ZM41.7587 10.9715V7.8669H42.181V10.9715H41.7587ZM43.9769 10.9715H43.5546V8.23126H42.6579V7.86773H44.8232V8.23126H43.9248V10.9723L43.9769 10.9715ZM48.9951 10.5578C48.7261 10.825 48.3708 10.9924 47.9899 11.0315C47.609 11.0706 47.226 10.9789 46.9065 10.7721C46.5869 10.5654 46.3505 10.2563 46.2377 9.89778C46.1248 9.53925 46.1426 9.15347 46.2879 8.80634C46.4332 8.45921 46.697 8.17225 47.0343 7.99449C47.3716 7.81672 47.7614 7.75918 48.1372 7.83168C48.513 7.90418 48.8514 8.10222 49.0947 8.39199C49.338 8.68176 49.471 9.04528 49.4711 9.42045C49.477 9.6319 49.4378 9.84224 49.3562 10.0381C49.2745 10.2339 49.1521 10.4109 48.9967 10.5578H48.9951ZM46.9893 10.2979C47.2131 10.5204 47.5153 10.6505 47.8339 10.6615C47.9937 10.6681 48.1529 10.6388 48.2993 10.5757C48.4457 10.5127 48.5754 10.4177 48.6785 10.2979C48.9156 10.0638 49.0489 9.74767 49.0496 9.41795C49.0619 9.2531 49.0347 9.08773 48.9703 8.93498C48.9058 8.78222 48.806 8.64628 48.6785 8.53796C48.4548 8.3155 48.1525 8.18542 47.8339 8.17444C47.6741 8.16781 47.5149 8.19712 47.3685 8.26014C47.2221 8.32316 47.0924 8.4182 46.9893 8.53796C46.7523 8.77206 46.6189 9.08822 46.6182 9.41795C46.6062 9.58293 46.6336 9.74838 46.6983 9.90115C46.7631 10.0539 46.8633 10.1898 46.991 10.2979H46.9893ZM50.0529 10.9715V7.8669H50.529L52.0646 10.2979V7.8669H52.4869V10.9715H52.0646L50.4274 8.43684V10.9715H50.0529Z" fill="white"/>
<path d="M46.0936 15.5235C45.7934 15.5164 45.4948 15.5691 45.216 15.6784C44.9372 15.7876 44.6839 15.9512 44.4716 16.1592C44.2592 16.3673 44.0922 16.6154 43.9807 16.8885C43.8691 17.1616 43.8153 17.454 43.8226 17.7481C43.8204 18.0408 43.8776 18.3311 43.991 18.6019C44.1044 18.8728 44.2716 19.1189 44.4829 19.3259C44.6943 19.5329 44.9455 19.6966 45.222 19.8077C45.4985 19.9187 45.7948 19.9749 46.0936 19.9727C46.3938 19.9798 46.6924 19.9271 46.9712 19.8179C47.25 19.7086 47.5033 19.545 47.7157 19.337C47.928 19.129 48.095 18.8809 48.2066 18.6078C48.3181 18.3347 48.3719 18.0422 48.3647 17.7481C48.3758 17.453 48.3246 17.1589 48.2144 16.8841C48.1042 16.6092 47.9374 16.3596 47.7242 16.1508C47.5111 15.942 47.2563 15.7786 46.9757 15.6706C46.6951 15.5627 46.3948 15.5126 46.0936 15.5235ZM46.0936 19.0443C45.7493 19.0163 45.4282 18.8626 45.1942 18.6136C44.9601 18.3646 44.8302 18.0385 44.8302 17.7001C44.8302 17.3616 44.9601 17.0355 45.1942 16.7865C45.4282 16.5375 45.7493 16.3838 46.0936 16.3559C46.2686 16.3571 46.4415 16.3935 46.6016 16.4629C46.7617 16.5322 46.9056 16.6329 47.0243 16.7589C47.143 16.8848 47.2341 17.0333 47.2919 17.1951C47.3498 17.3569 47.3731 17.5287 47.3605 17.6997C47.369 17.8698 47.3428 18.0399 47.2835 18.2001C47.2241 18.3602 47.1328 18.5072 47.0149 18.6324C46.897 18.7577 46.7548 18.8586 46.5966 18.9295C46.4385 19.0004 46.2675 19.0397 46.0936 19.0451V19.0443ZM41.1812 15.5235C40.881 15.5164 40.5824 15.5691 40.3036 15.6784C40.0248 15.7876 39.7715 15.9512 39.5592 16.1592C39.3468 16.3673 39.1798 16.6154 39.0683 16.8885C38.9567 17.1616 38.9029 17.454 38.9102 17.7481C38.908 18.0408 38.9653 18.3311 39.0786 18.6019C39.192 18.8728 39.3592 19.1189 39.5705 19.3259C39.7819 19.5329 40.0331 19.6966 40.3096 19.8077C40.5861 19.9187 40.8824 19.9749 41.1812 19.9727C41.4814 19.9798 41.78 19.9271 42.0588 19.8179C42.3377 19.7086 42.5909 19.545 42.8033 19.337C43.0156 19.129 43.1826 18.8809 43.2942 18.6078C43.4058 18.3347 43.4595 18.0422 43.4523 17.7481C43.4634 17.453 43.4123 17.1588 43.302 16.8839C43.1918 16.609 43.0248 16.3593 42.8115 16.1505C42.5983 15.9417 42.3434 15.7783 42.0627 15.6704C41.782 15.5625 41.4816 15.5125 41.1803 15.5235H41.1812ZM41.1812 19.0443C40.8369 19.0163 40.5158 18.8626 40.2818 18.6136C40.0478 18.3646 39.9178 18.0385 39.9178 17.7001C39.9178 17.3616 40.0478 17.0355 40.2818 16.7865C40.5158 16.5375 40.8369 16.3838 41.1812 16.3559C41.3562 16.3571 41.5291 16.3935 41.6892 16.4629C41.8493 16.5322 41.9932 16.6329 42.1119 16.7589C42.2306 16.8848 42.3217 17.0333 42.3796 17.1951C42.4374 17.3569 42.4607 17.5287 42.4481 17.6997C42.4564 17.8698 42.43 18.0399 42.3705 18.2C42.311 18.3601 42.2197 18.507 42.1017 18.6322C41.9837 18.7574 41.8415 18.8584 41.6834 18.9293C41.5252 19.0002 41.3542 19.0395 41.1803 19.0451L41.1812 19.0443ZM35.3159 16.1971V17.128H37.5869C37.5525 17.5716 37.3664 17.9908 37.0588 18.3181C36.8315 18.5421 36.5593 18.7175 36.2593 18.8335C35.9593 18.9494 35.6381 19.0032 35.3159 18.9916C34.9844 18.9948 34.6557 18.9324 34.3495 18.808C34.0434 18.6835 33.766 18.4998 33.5342 18.2677C33.3024 18.0356 33.1208 17.76 33.0005 17.4574C32.8802 17.1549 32.8236 16.8316 32.8341 16.5071C32.8282 16.1838 32.888 15.8625 33.0099 15.5619C33.1319 15.2614 33.3136 14.9876 33.5445 14.7564C33.7754 14.5252 34.0509 14.3414 34.355 14.2154C34.6591 14.0894 34.9857 14.0239 35.3159 14.0226C35.9619 14.0284 36.5828 14.2684 37.0588 14.6961L37.7465 14.0226C37.1092 13.4199 36.2562 13.0857 35.3704 13.0916C34.4455 13.0916 33.5584 13.4516 32.9043 14.0923C32.2503 14.7329 31.8828 15.6019 31.8828 16.5079C31.8828 17.414 32.2503 18.2829 32.9043 18.9236C33.5584 19.5643 34.4455 19.9243 35.3704 19.9243C35.8248 19.9492 36.2791 19.874 36.6997 19.704C37.1204 19.5341 37.4968 19.2738 37.801 18.9423C38.3582 18.3519 38.6609 17.5734 38.6457 16.7695C38.6569 16.5779 38.6385 16.3858 38.5911 16.1996L35.3159 16.1971ZM59.2994 16.9208C59.1696 16.5233 58.9166 16.1752 58.5757 15.9248C58.2348 15.6744 57.8228 15.5342 57.3969 15.5235C57.1061 15.5247 56.8187 15.5842 56.5524 15.6984C56.286 15.8126 56.0464 15.9791 55.8483 16.1876C55.6502 16.3961 55.4978 16.6421 55.4005 16.9105C55.3033 17.1789 55.2632 17.4639 55.2828 17.7481C55.2747 18.038 55.3261 18.3266 55.4341 18.5967C55.542 18.8668 55.7042 19.1129 55.9111 19.3204C56.118 19.5279 56.3653 19.6926 56.6384 19.8046C56.9116 19.9167 57.2049 19.9739 57.501 19.9727C57.8691 19.9764 58.2321 19.888 58.5556 19.7159C58.8791 19.5437 59.1524 19.2936 59.3497 18.9891L58.6109 18.4718C58.4971 18.6607 58.3349 18.8173 58.1404 18.9261C57.9459 19.0348 57.7258 19.092 57.5018 19.0919C57.269 19.1033 57.0381 19.0449 56.84 18.9246C56.6419 18.8043 56.4859 18.6277 56.3928 18.4183L59.4052 17.1773L59.2994 16.9199V16.9208ZM56.2358 17.647C56.2252 17.3272 56.3393 17.0154 56.555 16.7751C56.7707 16.5348 57.0717 16.384 57.3969 16.3533C57.5678 16.3474 57.7371 16.3879 57.8861 16.4701C58.0351 16.5524 58.1581 16.6734 58.2415 16.8197L56.2358 17.647ZM53.754 19.768H54.7581V13.2989H53.7548L53.754 19.768ZM52.168 15.9898C51.8486 15.667 51.4119 15.4811 50.9531 15.4725C50.3692 15.4988 49.8181 15.7447 49.4147 16.1592C49.0113 16.5736 48.7868 17.1245 48.7879 17.6971C48.784 17.9792 48.837 18.2592 48.9438 18.5211C49.0506 18.783 49.2091 19.0217 49.4103 19.2236C49.6114 19.4254 49.8512 19.5864 50.1159 19.6973C50.3807 19.8082 50.6652 19.8669 50.9531 19.8699C51.1733 19.8712 51.3913 19.8257 51.5918 19.7363C51.7922 19.647 51.9705 19.5161 52.1142 19.3527H52.1688V19.6627C52.1979 19.9482 52.1195 20.2342 51.9484 20.467C51.7773 20.6998 51.5253 20.8634 51.2397 20.927C50.9541 20.9905 50.6546 20.9497 50.3976 20.8121C50.1405 20.6745 49.9437 20.4497 49.844 20.18L48.9994 20.5435C49.1679 20.9282 49.4481 21.2559 49.8052 21.4859C50.1622 21.7158 50.5804 21.838 51.0077 21.8372C52.1689 21.8372 53.1218 21.1636 53.1218 19.5599V15.6254H52.1714V15.989L52.168 15.9898ZM51.0068 19.0443C50.6625 19.0163 50.3414 18.8626 50.1074 18.6136C49.8734 18.3646 49.7435 18.0385 49.7435 17.7001C49.7435 17.3616 49.8734 17.0355 50.1074 16.7865C50.3414 16.5375 50.6625 16.3838 51.0068 16.3559C51.3425 16.3952 51.6518 16.5538 51.8762 16.8015C52.1006 17.0492 52.2245 17.3689 52.2245 17.7001C52.2245 18.0312 52.1006 18.3509 51.8762 18.5986C51.6518 18.8463 51.3425 19.0049 51.0068 19.0443ZM63.8987 13.2989H61.5184V19.768H62.5226V17.3369H63.8944C64.1737 17.3506 64.453 17.3085 64.7152 17.2132C64.9774 17.1179 65.217 16.9714 65.4197 16.7825C65.6223 16.5937 65.7836 16.3665 65.8939 16.1147C66.0041 15.863 66.0609 15.5919 66.0609 15.3179C66.0609 15.044 66.0041 14.7729 65.8939 14.5211C65.7836 14.2693 65.6223 14.0421 65.4197 13.8533C65.217 13.6645 64.9774 13.518 64.7152 13.4227C64.453 13.3274 64.1737 13.2852 63.8944 13.2989H63.8987ZM63.9499 16.4035H62.5234V14.1789H63.9499C64.2491 14.1782 64.5371 14.2908 64.7535 14.4933C64.9699 14.6958 65.098 14.9724 65.111 15.2653C65.1002 15.5635 64.9744 15.8467 64.7589 16.0578C64.5435 16.2688 64.2544 16.3929 63.9499 16.4035ZM70.0268 15.4725C69.6688 15.4443 69.3105 15.5233 68.9992 15.6989C68.688 15.8745 68.4385 16.1386 68.2839 16.4561L69.1822 16.8197C69.2697 16.665 69.4012 16.5387 69.5607 16.4559C69.7202 16.3731 69.9008 16.3375 70.0805 16.3533C70.3307 16.3349 70.5787 16.41 70.7745 16.5635C70.9703 16.717 71.0995 16.9376 71.1359 17.1807V17.2342C70.8286 17.0667 70.4834 16.9773 70.1317 16.9743C69.1813 16.9743 68.2292 17.4915 68.2292 18.4242C68.2379 18.6252 68.2874 18.8225 68.3747 19.0047C68.462 19.1868 68.5854 19.3501 68.7378 19.485C68.8902 19.62 69.0685 19.7238 69.2622 19.7906C69.456 19.8574 69.6614 19.8858 69.8664 19.8741C70.1137 19.8826 70.3591 19.8303 70.5804 19.722C70.8017 19.6137 70.9918 19.4528 71.1333 19.254H71.1879V19.7713H72.1384V17.2868C72.1007 16.7734 71.858 16.2952 71.4629 15.9558C71.0679 15.6163 70.5523 15.443 70.0277 15.4734L70.0268 15.4725ZM69.921 19.0443C69.6045 19.0443 69.1276 18.888 69.1276 18.4743C69.1276 17.957 69.7095 17.8008 70.183 17.8008C70.4945 17.8019 70.8017 17.8725 71.0813 18.0072C71.042 18.2858 70.9043 18.5421 70.6922 18.7317C70.4801 18.9213 70.207 19.0321 69.9202 19.0451L69.921 19.0443ZM75.4665 15.6263L74.3573 18.4208H74.3028L73.1416 15.6263H72.0863L73.8293 19.5541L72.8251 21.7269H73.8293L76.5226 15.6213L75.4665 15.6263ZM66.5938 19.768H67.5979V13.2989H66.5938V19.768Z" fill="white"/>
<path d="M15.5784 7.58777C15.4071 7.8041 15.3277 8.0768 15.3566 8.34909V20.368C15.3444 20.6475 15.4439 20.9205 15.6339 21.1294L15.6893 21.1837L22.5742 14.4405V14.3318L15.5784 7.58777Z" fill="url(#paint0_linear_1_399)"/>
<path d="M24.795 16.7236L22.5188 14.494V14.3268L24.795 12.1014L24.8504 12.1557L27.5711 13.6783C27.7407 13.7328 27.8883 13.8384 27.993 13.98C28.0977 14.1216 28.1541 14.292 28.1541 14.4668C28.1541 14.6416 28.0977 14.812 27.993 14.9536C27.8883 15.0952 27.7407 15.2008 27.5711 15.2553L24.795 16.7236Z" fill="url(#paint1_linear_1_399)"/>
<path d="M24.8504 16.6693L22.5179 14.3853L15.5784 21.1829C15.8557 21.4545 16.2447 21.4544 16.7446 21.2372L24.8504 16.6693Z" fill="url(#paint2_linear_1_399)"/>
<path d="M24.8504 12.1014L16.7455 7.58862C16.5763 7.46008 16.3658 7.39485 16.1519 7.40465C15.938 7.41445 15.7346 7.49864 15.5784 7.6421L22.5179 14.3853L24.8504 12.1014Z" fill="url(#paint3_linear_1_399)"/>
<path opacity="0.2" d="M24.7923 16.6149L16.7421 21.0742C16.5832 21.1943 16.3882 21.2594 16.1875 21.2594C15.9869 21.2594 15.7919 21.1943 15.633 21.0742L15.5784 21.1277L15.6339 21.182C15.7927 21.3021 15.9877 21.3672 16.1884 21.3672C16.3891 21.3672 16.5841 21.3021 16.7429 21.182L24.7923 16.6149Z" fill="black"/>
<path opacity="0.12" d="M15.5784 21.0709C15.4071 20.8545 15.3277 20.5818 15.3566 20.3096V20.3639C15.3444 20.6433 15.4439 20.9164 15.6339 21.1252V21.0709H15.5784ZM27.5702 15.089L24.794 16.6116L24.8495 16.6659L27.5702 15.1433C27.7243 15.0783 27.8575 14.9734 27.9554 14.8399C28.0532 14.7063 28.1121 14.5492 28.1256 14.3853C28.1256 14.6569 27.9037 14.875 27.571 15.0923L27.5702 15.089Z" fill="black"/>
<path opacity="0.25" d="M16.7445 7.64206L27.5709 13.6783C27.9036 13.8956 28.1262 14.1137 28.1262 14.3853C28.1134 14.2208 28.0548 14.063 27.9569 13.9288C27.859 13.7946 27.7255 13.6892 27.5709 13.624L16.7445 7.58774C15.9673 7.15235 15.3564 7.4791 15.3564 8.34906V8.40338C15.3564 7.58774 15.9673 7.20667 16.7445 7.64206Z" fill="white"/>
<defs>
<linearGradient id="paint0_linear_1_399" x1="21.9096" y1="21.6187" x2="10.8996" y2="18.5739" gradientUnits="userSpaceOnUse">
<stop stop-color="#00A0FF"/>
<stop offset="0.007" stop-color="#00A1FF"/>
<stop offset="0.26" stop-color="#00BEFF"/>
<stop offset="0.512" stop-color="#00D2FF"/>
<stop offset="0.76" stop-color="#00DFFF"/>
<stop offset="1" stop-color="#00E3FF"/>
</linearGradient>
<linearGradient id="paint1_linear_1_399" x1="28.588" y1="15.471" x2="15.1534" y2="15.471" gradientUnits="userSpaceOnUse">
<stop stop-color="#FFE000"/>
<stop offset="0.409" stop-color="#FFBD00"/>
<stop offset="0.775" stop-color="#FFA500"/>
<stop offset="1" stop-color="#FF9C00"/>
</linearGradient>
<linearGradient id="paint2_linear_1_399" x1="23.5894" y1="14.2241" x2="14.9931" y2="-0.510779" gradientUnits="userSpaceOnUse">
<stop stop-color="#FF3A44"/>
<stop offset="1" stop-color="#C31162"/>
</linearGradient>
<linearGradient id="paint3_linear_1_399" x1="13.8538" y1="26.2611" x2="17.6692" y2="19.6714" gradientUnits="userSpaceOnUse">
<stop stop-color="#32A071"/>
<stop offset="0.069" stop-color="#2DA771"/>
<stop offset="0.476" stop-color="#15CF74"/>
<stop offset="0.801" stop-color="#06E775"/>
<stop offset="1" stop-color="#00F076"/>
</linearGradient>
</defs>
</svg>
