<svg width="120" height="25" viewBox="0 0 120 25" fill="none" xmlns="http://www.w3.org/2000/svg">
<path d="M38.4915 19.8155C37.8863 19.8488 37.2877 19.6743 36.7923 19.3203C36.5853 19.1647 36.4188 18.9603 36.3071 18.7248C36.1954 18.4893 36.1419 18.2298 36.1513 17.9686V8.4038C36.1464 8.36331 36.1506 8.3222 36.1637 8.28361C36.1767 8.24502 36.1983 8.20996 36.2268 8.18111C36.2552 8.15226 36.2898 8.13037 36.3279 8.1171C36.3659 8.10384 36.4064 8.09956 36.4464 8.10458H38.1558C38.3491 8.10458 38.4407 8.20776 38.4407 8.4038V17.2257C38.4407 17.6178 38.6136 17.8138 38.9698 17.8138C39.1207 17.8202 39.2717 17.8028 39.4175 17.7623C39.6209 17.7623 39.7329 17.8242 39.743 18.0099L39.8957 19.2996C39.903 19.3372 39.9023 19.376 39.8936 19.4133C39.8849 19.4506 39.8685 19.4856 39.8453 19.5159C39.8222 19.5462 39.7929 19.5712 39.7595 19.589C39.726 19.6069 39.6892 19.6173 39.6515 19.6195C39.2771 19.7449 38.8858 19.811 38.4915 19.8155Z" fill="#394149"/>
<path d="M48.1067 18.7115C47.2477 19.4311 46.1684 19.8248 45.0542 19.8248C43.94 19.8248 42.8606 19.4311 42.0017 18.7115C41.2468 17.9386 40.8232 16.8948 40.8232 15.8069C40.8232 14.7191 41.2468 13.6752 42.0017 12.9024C42.8623 12.1865 43.941 11.7952 45.0542 11.7952C46.1673 11.7952 47.2461 12.1865 48.1067 12.9024C48.8442 13.6824 49.256 14.7212 49.256 15.8018C49.256 16.8824 48.8442 17.9212 48.1067 18.7011V18.7115ZM43.6094 17.3495C44.0079 17.7156 44.5265 17.9184 45.0644 17.9184C45.6022 17.9184 46.1208 17.7156 46.5194 17.3495C46.8801 16.9288 47.0788 16.3902 47.0788 15.8327C47.0788 15.2753 46.8801 14.7366 46.5194 14.316C46.1208 13.9498 45.6022 13.747 45.0644 13.747C44.5265 13.747 44.0079 13.9498 43.6094 14.316C43.2486 14.7366 43.0499 15.2753 43.0499 15.8327C43.0499 16.3902 43.2486 16.9288 43.6094 17.3495Z" fill="#394149"/>
<path d="M58.6684 12.0563C58.8617 12.0563 58.9533 12.1595 58.9533 12.3555V19.7535C58.9711 20.2529 58.8789 20.7499 58.6836 21.2086C58.4882 21.6673 58.1945 22.0761 57.8239 22.4053C57.0012 23.1167 55.9431 23.4854 54.863 23.4371C53.8873 23.4719 52.9247 23.2017 52.1056 22.6632C51.7558 22.4303 51.4569 22.1269 51.2276 21.7719C50.9983 21.4169 50.8435 21.0179 50.7726 20.5996C50.7726 20.3933 50.7726 20.3004 51.0474 20.3004H52.7568C52.8293 20.3029 52.8996 20.3266 52.9592 20.3687C53.0188 20.4108 53.0651 20.4695 53.0925 20.5377C53.2034 20.8511 53.4244 21.1119 53.7132 21.2703C54.0651 21.4544 54.4568 21.5466 54.8528 21.5386C55.0917 21.5518 55.3308 21.5167 55.5562 21.4352C55.7815 21.3537 55.9886 21.2275 56.1654 21.0639C56.3268 20.8928 56.4524 20.6903 56.5346 20.4687C56.6168 20.247 56.6539 20.0108 56.6436 19.7742V19.1241C56.0315 19.5806 55.2867 19.8167 54.5272 19.7948C53.9957 19.8144 53.4657 19.7249 52.9691 19.5316C52.4726 19.3384 52.0196 19.0453 51.6375 18.6701C50.9039 17.9006 50.4939 16.8721 50.4939 15.8017C50.4939 14.7314 50.9039 13.7029 51.6375 12.9333C52.0215 12.5614 52.475 12.2712 52.9712 12.0799C53.4675 11.8885 53.9966 11.7998 54.5272 11.819C55.3086 11.798 56.0735 12.0493 56.6945 12.5309V12.3658C56.6898 12.3263 56.6939 12.2862 56.7064 12.2484C56.7189 12.2107 56.7395 12.1762 56.7668 12.1476C56.7941 12.1189 56.8273 12.0968 56.8641 12.0828C56.9008 12.0688 56.9402 12.0633 56.9794 12.0666L58.6684 12.0563ZM54.7205 17.9582C54.9827 17.9664 55.2434 17.9162 55.4842 17.811C55.7251 17.7058 55.9403 17.5482 56.1145 17.3494C56.4528 16.9064 56.6363 16.362 56.6363 15.8017C56.6363 15.2414 56.4528 14.697 56.1145 14.254C55.9409 14.0579 55.727 13.9027 55.488 13.7993C55.2489 13.696 54.9904 13.6469 54.7307 13.6556C54.4655 13.6471 54.2017 13.6972 53.9575 13.8023C53.7133 13.9074 53.4946 14.0651 53.3164 14.2643C52.9416 14.6881 52.7445 15.2433 52.7669 15.812C52.7486 16.3752 52.9413 16.9245 53.3062 17.3494C53.4848 17.5482 53.7037 17.7055 53.9478 17.8105C54.1919 17.9156 54.4555 17.966 54.7205 17.9582Z" fill="#394149"/>
<path d="M67.7347 18.7115C66.8741 19.4274 65.7954 19.8187 64.6822 19.8187C63.5691 19.8187 62.4904 19.4274 61.6298 18.7115C60.8916 17.9298 60.4795 16.8893 60.4795 15.807C60.4795 14.7246 60.8916 13.6841 61.6298 12.9024C62.4912 12.1883 63.5696 11.7982 64.6822 11.7982C65.7949 11.7982 66.8733 12.1883 67.7347 12.9024C68.4723 13.6824 68.884 14.7212 68.884 15.8018C68.884 16.8824 68.4723 17.9212 67.7347 18.7012V18.7115ZM63.2272 17.3495C63.4223 17.5377 63.6522 17.6847 63.9037 17.7821C64.1552 17.8796 64.4233 17.9254 64.6924 17.917C64.9598 17.924 65.226 17.8775 65.4756 17.7801C65.7253 17.6828 65.9536 17.5364 66.1474 17.3495C66.5023 16.9261 66.6971 16.3885 66.6971 15.8328C66.6971 15.277 66.5023 14.7394 66.1474 14.316C65.9536 14.1291 65.7253 13.9827 65.4756 13.8854C65.226 13.788 64.9598 13.7415 64.6924 13.7485C64.4233 13.7401 64.1552 13.786 63.9037 13.8834C63.6522 13.9808 63.4223 14.1278 63.2272 14.316C62.8724 14.7394 62.6775 15.277 62.6775 15.8328C62.6775 16.3885 62.8724 16.9261 63.2272 17.3495Z" fill="#394149"/>
<path d="M72.5573 10.3023C72.2883 10.541 71.943 10.6726 71.5856 10.6726C71.2281 10.6726 70.8828 10.541 70.6138 10.3023C70.4919 10.1856 70.3947 10.0448 70.3283 9.88871C70.2619 9.73258 70.2277 9.56434 70.2277 9.3943C70.2277 9.22426 70.2619 9.05602 70.3283 8.89988C70.3947 8.74375 70.4919 8.60301 70.6138 8.48631C70.8856 8.25355 71.2298 8.12585 71.5856 8.12585C71.9413 8.12585 72.2855 8.25355 72.5573 8.48631C72.6792 8.60301 72.7764 8.74375 72.8428 8.89988C72.9092 9.05602 72.9434 9.22426 72.9434 9.3943C72.9434 9.56434 72.9092 9.73258 72.8428 9.88871C72.7764 10.0448 72.6792 10.1856 72.5573 10.3023ZM72.7709 19.8155C72.1661 19.8456 71.5685 19.6714 71.0717 19.3202C70.8678 19.1623 70.7042 18.9572 70.5945 18.7221C70.4847 18.4869 70.432 18.2286 70.4409 17.9686V12.3556C70.4359 12.3151 70.4402 12.274 70.4532 12.2354C70.4663 12.1968 70.4879 12.1617 70.5164 12.1329C70.5448 12.104 70.5794 12.0821 70.6174 12.0689C70.6555 12.0556 70.696 12.0513 70.7359 12.0564H72.4453C72.6387 12.0564 72.7302 12.1595 72.7302 12.3556V17.2257C72.7302 17.6178 72.9032 17.8138 73.2492 17.8138C73.4034 17.8194 73.5577 17.8021 73.707 17.7622C73.9105 17.7622 74.0224 17.8241 74.0326 18.0099L74.1852 19.2996C74.1926 19.3372 74.1919 19.376 74.1832 19.4133C74.1745 19.4506 74.1581 19.4856 74.1349 19.5159C74.1118 19.5462 74.0825 19.5711 74.0491 19.589C74.0156 19.6069 73.9788 19.6173 73.9411 19.6195C73.5633 19.7456 73.1686 19.8117 72.7709 19.8155Z" fill="#394149"/>
<path d="M80.4738 11.8087C81.0077 11.7873 81.5404 11.8749 82.0403 12.0663C82.5402 12.2578 82.9971 12.5491 83.3838 12.9231C84.1033 13.7061 84.5034 14.7366 84.5034 15.8069C84.5034 16.8773 84.1033 17.9078 83.3838 18.6908C82.9989 19.0681 82.5426 19.3623 82.0424 19.5556C81.5423 19.7489 81.0086 19.8373 80.4738 19.8155C79.7118 19.8327 78.9651 19.5972 78.3472 19.1448V22.8696C78.3472 23.0657 78.2454 23.1585 78.0521 23.1585H76.3427C76.3037 23.1659 76.2635 23.1636 76.2256 23.1517C76.1877 23.1398 76.1533 23.1187 76.1252 23.0902C76.0972 23.0618 76.0763 23.0268 76.0646 22.9884C76.0529 22.9499 76.0506 22.9092 76.0578 22.8696V14.4089C76.0698 14.3261 76.0626 14.2416 76.0366 14.1622C76.0107 14.0828 75.9668 14.0107 75.9085 13.9515C75.8502 13.8924 75.779 13.8479 75.7007 13.8216C75.6224 13.7953 75.5391 13.7879 75.4575 13.8001H75.1217C74.8979 13.8001 74.786 13.7175 74.786 13.5525V12.3349C74.7807 12.2596 74.801 12.1847 74.8436 12.1227C74.8862 12.0608 74.9485 12.0155 75.02 11.9944C75.372 11.8647 75.7445 11.8017 76.1189 11.8087C76.4923 11.7752 76.867 11.8555 77.1952 12.0393C77.5233 12.2231 77.7898 12.5021 77.9605 12.8405C78.2883 12.5043 78.6802 12.2394 79.1123 12.062C79.5444 11.8846 80.0077 11.7984 80.4738 11.8087ZM78.8865 17.3495C79.0679 17.5418 79.2858 17.6948 79.5272 17.7993C79.7685 17.9039 80.0282 17.9577 80.2906 17.9577C80.553 17.9577 80.8127 17.9039 81.0541 17.7993C81.2954 17.6948 81.5133 17.5418 81.6947 17.3495C82.0769 16.9173 82.2777 16.3509 82.2544 15.7708C82.281 15.1903 82.0798 14.6227 81.6947 14.1922C81.5133 13.9999 81.2954 13.8469 81.0541 13.7423C80.8127 13.6378 80.553 13.5839 80.2906 13.5839C80.0282 13.5839 79.7685 13.6378 79.5272 13.7423C79.2858 13.8469 79.0679 13.9999 78.8865 14.1922C78.5162 14.6303 78.3235 15.1944 78.3472 15.7708C78.3266 16.3468 78.5189 16.9099 78.8865 17.3495Z" fill="#394149"/>
<path d="M89.3048 19.8155C88.3914 19.8536 87.4857 19.632 86.6899 19.1758C86.3706 18.9807 86.0987 18.7153 85.8943 18.3991C85.69 18.083 85.5585 17.7242 85.5096 17.3495C85.5096 17.1431 85.5808 17.0399 85.8047 17.0399H87.3004C87.3715 17.0428 87.4405 17.0654 87.4998 17.1055C87.559 17.1455 87.6062 17.2014 87.6361 17.2669C87.8498 17.8241 88.4094 18.1027 89.3048 18.1027C89.6172 18.1172 89.9282 18.0534 90.2104 17.917C90.3078 17.8724 90.3914 17.8018 90.4524 17.7127C90.5133 17.6237 90.5492 17.5195 90.5564 17.4114C90.5564 17.1431 90.3936 16.9574 90.068 16.8336C89.6818 16.7032 89.2825 16.6167 88.8775 16.5756C88.3977 16.5206 87.9219 16.4344 87.453 16.3177C86.997 16.213 86.5823 15.9722 86.2625 15.6264C86.0742 15.3913 85.9356 15.1194 85.8552 14.8277C85.7749 14.536 85.7547 14.2306 85.7957 13.9306C85.8367 13.6306 85.9382 13.3424 86.0938 13.0839C86.2494 12.8253 86.4557 12.602 86.7001 12.4278C87.4334 11.954 88.2939 11.7232 89.1624 11.7674C90.0032 11.7386 90.8351 11.9495 91.5637 12.3762C91.8573 12.5448 92.1101 12.7777 92.3037 13.058C92.4973 13.3382 92.6269 13.6587 92.6829 13.9961C92.6829 14.2025 92.5913 14.3057 92.4082 14.3057H90.9023C90.8389 14.3095 90.7758 14.2938 90.7214 14.2606C90.6669 14.2275 90.6236 14.1785 90.597 14.1199C90.4964 13.8755 90.307 13.6798 90.068 13.5731C89.7983 13.43 89.4971 13.359 89.1929 13.3667C88.8946 13.3503 88.5971 13.4106 88.328 13.5421C88.2332 13.5792 88.1515 13.6442 88.0935 13.7288C88.0355 13.8134 88.0038 13.9137 88.0024 14.0168C88.0089 14.1579 88.0599 14.2931 88.1478 14.4027C88.2357 14.5123 88.3559 14.5904 88.4908 14.6255C88.8816 14.7749 89.2878 14.8787 89.7017 14.9351C90.1775 14.9986 90.6496 15.0881 91.116 15.2033C91.572 15.308 91.9866 15.5488 92.3064 15.8946C92.4775 16.0852 92.6097 16.3082 92.6952 16.5508C92.7808 16.7935 92.8181 17.0509 92.805 17.3082C92.8138 17.6649 92.7312 18.0178 92.5654 18.3324C92.3995 18.6471 92.1561 18.9128 91.8587 19.1035C91.0985 19.5984 90.2077 19.8468 89.3048 19.8155Z" fill="#394149"/>
<path d="M103.56 19.2987C103.565 19.3353 103.564 19.3728 103.555 19.4088C103.547 19.4448 103.531 19.4787 103.509 19.5085C103.487 19.5383 103.46 19.5634 103.428 19.5823C103.397 19.6012 103.362 19.6135 103.326 19.6185C102.954 19.7415 102.567 19.8076 102.176 19.8146C101.789 19.8552 101.399 19.7939 101.042 19.6366C100.686 19.4794 100.375 19.2315 100.141 18.917C99.4222 19.5435 98.4929 19.865 97.5463 19.8146C97.1068 19.8351 96.6679 19.7622 96.2579 19.6005C95.8479 19.4388 95.4757 19.1919 95.1654 18.8757C94.8572 18.5444 94.6181 18.1534 94.4625 17.7262C94.3069 17.299 94.238 16.8443 94.2598 16.3894V12.3556C94.2598 12.1596 94.3514 12.0564 94.5447 12.0564H96.2541C96.4474 12.0564 96.539 12.1596 96.539 12.3556V16.0799C96.5204 16.5439 96.6768 16.9977 96.9765 17.3489C97.1261 17.5097 97.3079 17.6363 97.5097 17.7199C97.7116 17.8035 97.9287 17.8424 98.1466 17.8337C98.3696 17.8436 98.5924 17.8086 98.8019 17.7307C99.0115 17.6528 99.2038 17.5335 99.3676 17.3798C99.5227 17.2178 99.6433 17.0253 99.7221 16.8141C99.8008 16.6029 99.836 16.3776 99.8255 16.1521V12.3556C99.8255 12.1596 99.9171 12.0564 100.11 12.0564H101.84C102.033 12.0564 102.125 12.1596 102.125 12.3556V17.2147C102.125 17.6171 102.298 17.8131 102.634 17.8131C102.791 17.8193 102.949 17.8019 103.102 17.7615C103.14 17.7506 103.181 17.7486 103.22 17.7558C103.259 17.7629 103.297 17.779 103.329 17.8029C103.361 17.8267 103.388 17.8576 103.407 17.8934C103.425 17.9291 103.436 17.9687 103.438 18.0091L103.56 19.2987Z" fill="#394149"/>
<path d="M119.729 19.2996C119.738 19.3365 119.738 19.3751 119.731 19.4124C119.724 19.4497 119.708 19.4849 119.686 19.5155C119.664 19.5461 119.635 19.5713 119.602 19.5892C119.569 19.6072 119.532 19.6175 119.495 19.6194C119.116 19.7442 118.722 19.8103 118.324 19.8155C117.719 19.8471 117.121 19.6728 116.625 19.3202C116.411 19.1692 116.236 18.9668 116.117 18.731C115.998 18.4952 115.939 18.2333 115.943 17.9686V15.5438C115.965 15.0811 115.812 14.6275 115.516 14.2747C115.373 14.1134 115.197 13.9863 115 13.9024C114.803 13.8186 114.59 13.7801 114.377 13.7897C114.184 13.7824 113.993 13.8194 113.816 13.8981C113.64 13.9767 113.484 14.0949 113.359 14.2437C113.09 14.5895 112.953 15.0216 112.972 15.4613V19.2686C112.972 19.4647 112.881 19.5679 112.687 19.5679H110.968C110.928 19.5729 110.887 19.5686 110.849 19.5553C110.811 19.5421 110.777 19.5202 110.748 19.4913C110.72 19.4625 110.698 19.4274 110.685 19.3888C110.672 19.3502 110.668 19.3091 110.673 19.2686V15.5438C110.695 15.0862 110.554 14.6357 110.276 14.2747C110.152 14.123 109.996 14.001 109.821 13.9171C109.645 13.8333 109.453 13.7898 109.259 13.7897C109.051 13.7813 108.844 13.8173 108.651 13.8955C108.458 13.9738 108.284 14.0924 108.139 14.2437C107.848 14.5785 107.698 15.0157 107.722 15.4613V19.2686C107.727 19.3091 107.723 19.3502 107.71 19.3888C107.697 19.4274 107.675 19.4625 107.647 19.4913C107.618 19.5202 107.584 19.5421 107.546 19.5553C107.508 19.5686 107.467 19.5729 107.427 19.5679H105.769C105.575 19.5679 105.484 19.4647 105.484 19.2686V14.4088C105.496 14.3261 105.488 14.2416 105.462 14.1622C105.436 14.0828 105.393 14.0107 105.334 13.9515C105.276 13.8924 105.205 13.8479 105.126 13.8216C105.048 13.7953 104.965 13.7879 104.883 13.8001H104.548C104.324 13.8001 104.212 13.7175 104.212 13.5524V12.3349C104.206 12.2596 104.227 12.1847 104.269 12.1227C104.312 12.0607 104.374 12.0155 104.446 11.9944C104.798 11.8647 105.17 11.8017 105.545 11.8087C105.904 11.7776 106.265 11.8503 106.585 12.0182C106.906 12.1862 107.173 12.4426 107.356 12.7579C107.699 12.428 108.106 12.1734 108.55 12.0101C108.995 11.8468 109.468 11.7782 109.94 11.8087C110.399 11.786 110.856 11.8732 111.275 12.0632C111.694 12.2532 112.063 12.5407 112.352 12.9024C112.688 12.5313 113.102 12.2406 113.563 12.0515C114.024 11.8623 114.521 11.7794 115.018 11.8087C115.462 11.7876 115.905 11.8602 116.32 12.0218C116.735 12.1834 117.113 12.4306 117.429 12.7476C117.738 13.0783 117.978 13.4692 118.134 13.8967C118.289 14.3241 118.358 14.7792 118.335 15.2343V17.2257C118.335 17.6177 118.508 17.8138 118.833 17.8138C118.991 17.8212 119.149 17.8038 119.301 17.7622C119.511 17.7622 119.623 17.8447 119.637 18.0098L119.729 19.2996Z" fill="#394149"/>
<path d="M0.417172 10.715C1.16785 7.65535 2.90639 4.93835 5.35598 2.9966C7.80558 1.05485 10.8254 0 13.9346 0C17.0437 0 20.0636 1.05485 22.5131 2.9966C24.9627 4.93835 26.7013 7.65535 27.452 10.715H26.231C24.1712 10.6842 22.1537 11.3085 20.4618 12.5C20.3641 12.5717 20.2622 12.6372 20.1565 12.6961H20.0141C19.9084 12.6372 19.8065 12.5717 19.7088 12.5C18.0019 11.336 15.9916 10.7144 13.9346 10.7144C11.8776 10.7144 9.86725 11.336 8.16029 12.5C8.06264 12.5717 7.9607 12.6372 7.85504 12.6961H7.7126C7.60694 12.6372 7.505 12.5717 7.40735 12.5C5.71539 11.3085 3.69789 10.6842 1.63816 10.715H0.417172ZM24.0332 17.1844C24.66 16.6894 25.4368 16.4305 26.231 16.4518H27.8691V13.1397H26.231C24.8321 13.1226 23.4653 13.5641 22.334 14.3985C21.6973 14.8745 20.9271 15.1313 20.1362 15.1313C19.3452 15.1313 18.575 14.8745 17.9384 14.3985C16.7784 13.5797 15.3989 13.1407 13.9854 13.1407C12.572 13.1407 11.1925 13.5797 10.0325 14.3985C9.39583 14.8745 8.62565 15.1313 7.83469 15.1313C7.04374 15.1313 6.27355 14.8745 5.63691 14.3985C4.49162 13.5534 3.10518 13.1113 1.68904 13.1397H0V16.4518H1.63816C2.43233 16.4305 3.20916 16.6894 3.83595 17.1844C4.99386 18.0038 6.37184 18.4432 7.78382 18.4432C9.1958 18.4432 10.5738 18.0038 11.7317 17.1844C12.3593 16.6909 13.1356 16.4322 13.9295 16.4518C14.7239 16.4287 15.5013 16.6879 16.1273 17.1844C17.2873 18.0033 18.6668 18.4422 20.0802 18.4422C21.4936 18.4422 22.8731 18.0033 24.0332 17.1844ZM24.0332 23.107C24.66 22.612 25.4368 22.353 26.231 22.3744H27.8691V19.0623H26.231C24.8321 19.0451 23.4653 19.4866 22.334 20.3211C21.6973 20.797 20.9271 21.0538 20.1362 21.0538C19.3452 21.0538 18.575 20.797 17.9384 20.3211C16.7784 19.5022 15.3989 19.0632 13.9854 19.0632C12.572 19.0632 11.1925 19.5022 10.0325 20.3211C9.39583 20.797 8.62565 21.0538 7.83469 21.0538C7.04374 21.0538 6.27355 20.797 5.63691 20.3211C4.49162 19.476 3.10518 19.0339 1.68904 19.0623H0V22.3744H1.63816C2.43233 22.353 3.20916 22.612 3.83595 23.107C4.99386 23.9264 6.37184 24.3657 7.78382 24.3657C9.1958 24.3657 10.5738 23.9264 11.7317 23.107C12.3593 22.6135 13.1356 22.3547 13.9295 22.3744C14.7239 22.3513 15.5013 22.6104 16.1273 23.107C17.2873 23.9258 18.6668 24.3648 20.0802 24.3648C21.4936 24.3648 22.8731 23.9258 24.0332 23.107Z" fill="#394149"/>
</svg>
