<svg width="124" height="30" viewBox="0 0 124 30" fill="none" xmlns="http://www.w3.org/2000/svg">
<rect width="124" height="30" fill="#1E1E1E"/>
<g clip-path="url(#clip0_0_1)">
<rect width="1440" height="5211" transform="translate(-749 -745)" fill="white"/>
<rect x="-749" y="-96" width="1440" height="222.154" fill="#5046E5" fill-opacity="0.1"/>
<path d="M26.5988 10.2664C26.9599 10.2664 27.0802 10.4005 27.0802 10.7616V18.9335H31.1623C31.5134 18.9335 31.6438 19.0676 31.6438 19.4288V20.151C31.6438 20.5122 31.5134 20.6463 31.1623 20.6463H25.7864C25.4353 20.6463 25.2949 20.5122 25.2949 20.151V10.7616C25.2949 10.4005 25.4353 10.2664 25.7864 10.2664H26.5988Z" fill="#394149"/>
<path d="M35.2051 13.8675C35.2051 11.484 36.6694 10.0498 39.217 10.0498C41.7645 10.0498 43.2289 11.484 43.2289 13.8675V17.0454C43.2289 19.4289 41.7545 20.8631 39.217 20.8631C36.6794 20.8631 35.2051 19.4289 35.2051 17.0454V13.8675ZM41.5439 13.8675C41.5439 12.5261 40.7315 11.8039 39.2671 11.8039C37.8028 11.8039 37.0004 12.5365 37.0004 13.8675V17.0661C37.0004 18.4177 37.8028 19.1297 39.2671 19.1297C40.7315 19.1297 41.5439 18.3868 41.5439 17.0661V13.8675Z" fill="#394149"/>
<path d="M55.174 14.9611C55.5651 14.9611 55.6554 15.0952 55.6554 15.4563V17.4168C55.666 17.8785 55.576 18.3369 55.3921 18.7583C55.2081 19.1796 54.9348 19.5533 54.5922 19.8518C53.7414 20.5488 52.6686 20.8946 51.5833 20.8217C48.9856 20.8217 47.5714 19.3875 47.5714 17.0041V13.8055C47.5714 11.4529 49.0357 10.0084 51.5833 10.0084C53.5892 10.0084 54.8931 10.8236 55.4448 12.4538C55.4756 12.5151 55.4922 12.5829 55.4931 12.6518C55.494 12.7208 55.4793 12.7891 55.4501 12.8512C55.4208 12.9133 55.378 12.9675 55.3248 13.0096C55.2717 13.0517 55.2097 13.0804 55.1439 13.0935L54.3615 13.3721C54.0205 13.4959 53.8801 13.4237 53.7598 13.0626C53.5936 12.6218 53.2894 12.2507 52.8952 12.0077C52.5011 11.7648 52.0394 11.664 51.5833 11.7212C50.1089 11.7212 49.3065 12.4538 49.3065 13.7848V17.066C49.3065 18.4176 50.119 19.1296 51.5833 19.1296C53.0476 19.1296 53.9503 18.4383 53.9503 17.4271V16.6636H51.7739C51.4128 16.6636 51.2824 16.5191 51.2824 16.158V15.4563C51.2824 15.0952 51.4128 14.9611 51.7739 14.9611H55.174Z" fill="#394149"/>
<path d="M59.7979 13.8675C59.7979 11.484 61.2622 10.0498 63.8098 10.0498C66.3573 10.0498 67.8217 11.484 67.8217 13.8675V17.0454C67.8217 19.4289 66.3473 20.8631 63.8098 20.8631C61.2722 20.8631 59.7979 19.4289 59.7979 17.0454V13.8675ZM66.1266 13.8675C66.1266 12.5261 65.3142 11.8039 63.8599 11.8039C62.4056 11.8039 61.5831 12.5365 61.5831 13.8675V17.0661C61.5831 18.4177 62.3956 19.1297 63.8599 19.1297C65.3242 19.1297 66.1266 18.3868 66.1266 17.0661V13.8675Z" fill="#394149"/>
<path d="M72.5449 10.5656C72.5449 10.3386 72.615 10.2664 72.8352 10.2664H73.2956C73.5158 10.2664 73.5658 10.3386 73.5658 10.5656V20.3471C73.5658 20.5741 73.5658 20.6463 73.2956 20.6463H72.8352C72.615 20.6463 72.5449 20.5741 72.5449 20.3471V10.5656Z" fill="#394149"/>
<path d="M82.7058 10.2664C83.541 10.2664 84.3421 10.6077 84.9327 11.2153C85.5233 11.8229 85.8551 12.647 85.8551 13.5062C85.8551 14.3655 85.5233 15.1896 84.9327 15.7972C84.3421 16.4047 83.541 16.7461 82.7058 16.7461H79.6969V20.3471C79.6969 20.5741 79.6467 20.6463 79.4361 20.6463H78.9647C78.7541 20.6463 78.6738 20.5741 78.6738 20.3471V10.5656C78.6738 10.3386 78.7541 10.2664 78.9647 10.2664H82.7058ZM82.6155 15.7246C82.9027 15.7246 83.187 15.6664 83.4523 15.5534C83.7175 15.4403 83.9586 15.2747 84.1616 15.0658C84.3646 14.8569 84.5257 14.609 84.6356 14.3361C84.7455 14.0631 84.802 13.7707 84.802 13.4753C84.802 13.1799 84.7455 12.8874 84.6356 12.6145C84.5257 12.3416 84.3646 12.0936 84.1616 11.8847C83.9586 11.6759 83.7175 11.5102 83.4523 11.3972C83.187 11.2841 82.9027 11.2259 82.6155 11.2259H79.6066V15.7246H82.6155Z" fill="#394149"/>
<path d="M93.6883 10.0601C94.4627 9.97216 95.244 10.1435 95.9161 10.5488C96.5883 10.954 97.1155 11.5714 97.4194 12.3094C97.4996 12.4745 97.4194 12.6086 97.2589 12.6912L96.8176 12.8975C96.637 12.9698 96.5668 12.9595 96.4565 12.7634C96.2293 12.2157 95.8386 11.7566 95.341 11.4524C94.8433 11.1482 94.2645 11.0147 93.6883 11.0713C91.9933 11.0713 91.0705 11.7626 91.0705 13.0007C91.0607 13.3791 91.1842 13.7484 91.4183 14.0405C91.6525 14.3325 91.9813 14.5276 92.3443 14.5897C92.8838 14.7707 93.4431 14.8816 94.0093 14.9199C94.6946 14.9575 95.3707 15.1001 96.0152 15.3429C96.5093 15.5037 96.9345 15.8346 97.2194 16.2799C97.5044 16.7252 97.6316 17.2578 97.5798 17.7883C97.5798 19.7178 96.2158 20.8837 93.7084 20.8837C92.8859 20.9805 92.0561 20.7844 91.3571 20.3282C90.6581 19.872 90.1322 19.1831 89.867 18.3764C89.8493 18.3396 89.8397 18.2993 89.8389 18.2583C89.8381 18.2172 89.8462 18.1765 89.8625 18.1391C89.8788 18.1016 89.9029 18.0683 89.9331 18.0416C89.9634 18.0148 89.999 17.9953 90.0375 17.9843L90.4788 17.8192C90.5135 17.8046 90.5509 17.7976 90.5884 17.7987C90.626 17.7997 90.6629 17.8087 90.6968 17.8252C90.7308 17.8417 90.761 17.8653 90.7857 17.8945C90.8103 17.9236 90.8287 17.9578 90.8399 17.9947C91.0642 18.5775 91.4632 19.0718 91.979 19.4057C92.4947 19.7397 93.1005 19.8959 93.7084 19.8519C95.604 19.8519 96.5368 19.1709 96.5368 17.7883C96.5544 17.4248 96.4462 17.0667 96.2313 16.7777C96.0164 16.4886 95.7088 16.2873 95.3633 16.2096C94.8443 16.0504 94.3092 15.9534 93.7685 15.9207L92.6853 15.7763C92.3463 15.7022 92.0115 15.6092 91.6824 15.4977C91.3572 15.3967 91.0541 15.232 90.7897 15.0127C90.5237 14.7649 90.3139 14.4599 90.1752 14.1193C90.0365 13.7787 89.9724 13.4109 89.9873 13.042C90.0575 11.2363 91.3714 10.0601 93.6883 10.0601Z" fill="#394149"/>
<path d="M102.985 17.1175C103.028 17.8472 103.34 18.5326 103.857 19.0338C104.374 19.5349 105.058 19.814 105.768 19.814C106.479 19.814 107.163 19.5349 107.68 19.0338C108.197 18.5326 108.509 17.8472 108.552 17.1175V10.5656C108.552 10.3386 108.622 10.2664 108.843 10.2664H109.304C109.525 10.2664 109.595 10.3386 109.595 10.5656V17.1072C109.595 19.4494 108.251 20.863 105.773 20.863C103.296 20.863 101.952 19.4494 101.952 17.1072V10.5656C101.952 10.3386 102.022 10.2664 102.233 10.2664H102.704C102.915 10.2664 102.985 10.3386 102.985 10.5656V17.1175Z" fill="#394149"/>
<path d="M123.436 10.2664C123.657 10.2664 123.727 10.3387 123.727 10.5657V20.3472C123.727 20.5741 123.657 20.6464 123.436 20.6464H123.015C122.805 20.6464 122.734 20.5741 122.734 20.3472V14.3936C122.734 13.5274 122.791 12.6621 122.905 11.8038H122.845C122.531 12.5887 122.166 13.3506 121.751 14.0841L119.595 17.9946C119.569 18.0625 119.523 18.1205 119.464 18.161C119.405 18.2015 119.335 18.2227 119.264 18.2216H118.983C118.911 18.222 118.84 18.2007 118.78 18.1604C118.719 18.1201 118.671 18.0625 118.642 17.9946L116.456 14.0428C116.067 13.3198 115.732 12.5679 115.453 11.7935H115.393C115.495 12.6597 115.549 13.5313 115.553 14.404V20.3472C115.553 20.5741 115.483 20.6464 115.262 20.6464H114.871C114.65 20.6464 114.58 20.5741 114.58 20.3472V10.5657C114.58 10.3387 114.65 10.2664 114.871 10.2664H115.232C115.315 10.2585 115.397 10.2771 115.469 10.3196C115.541 10.3621 115.598 10.4264 115.633 10.5037L119.144 16.9216L122.634 10.5657C122.744 10.349 122.805 10.318 123.025 10.318L123.436 10.2664Z" fill="#394149"/>
<path d="M8.75598 18.3558V25.8157C8.75598 26.1017 8.64555 26.3759 8.44899 26.5781C8.25243 26.7804 7.98584 26.894 7.70787 26.894C7.42989 26.894 7.1633 26.7804 6.96674 26.5781C6.77018 26.3759 6.65976 26.1017 6.65976 25.8157V18.3661C6.95158 18.5853 7.30149 18.7077 7.66273 18.7169C8.05654 18.7285 8.44234 18.6011 8.75598 18.3558ZM17.6825 16.1993C17.4165 16.1993 17.1613 16.308 16.9732 16.5015C16.7852 16.695 16.6795 16.9575 16.6795 17.2311V18.5312C16.6795 18.8172 16.7899 19.0914 16.9865 19.2936C17.183 19.4958 17.4496 19.6094 17.7276 19.6094C18.0056 19.6094 18.2722 19.4958 18.4687 19.2936C18.6653 19.0914 18.7757 18.8172 18.7757 18.5312V17.2827C18.7835 17.1348 18.7602 16.9868 18.7075 16.8489C18.6548 16.7111 18.5738 16.5865 18.47 16.4837C18.3663 16.3809 18.2423 16.3023 18.1064 16.2532C17.9705 16.2041 17.8259 16.1858 17.6825 16.1993ZM4.383 21.1829C4.0221 21.1718 3.67273 21.0496 3.38003 20.8321V28.3127C3.38003 28.6 3.49098 28.8756 3.68848 29.0788C3.88598 29.2819 4.15385 29.3961 4.43315 29.3961C4.71246 29.3961 4.98033 29.2819 5.17782 29.0788C5.37532 28.8756 5.48628 28.6 5.48628 28.3127V20.8837C5.15876 21.1015 4.77232 21.2063 4.383 21.1829ZM14.4128 13.9603C14.2769 13.9533 14.1411 13.9748 14.0135 14.0235C13.886 14.0722 13.7694 14.1471 13.6709 14.2436C13.5724 14.3402 13.494 14.4563 13.4405 14.585C13.387 14.7136 13.3595 14.8522 13.3596 14.9921V20.7393C13.3596 21.0266 13.4706 21.3022 13.6681 21.5053C13.8656 21.7085 14.1335 21.8226 14.4128 21.8226C14.6921 21.8226 14.9599 21.7085 15.1574 21.5053C15.3549 21.3022 15.4659 21.0266 15.4659 20.7393V15.0643C15.4739 14.9154 15.4504 14.7665 15.3971 14.6278C15.3437 14.4892 15.2618 14.364 15.157 14.2611C15.0521 14.1581 14.9268 14.0797 14.7897 14.0314C14.6525 13.983 14.5068 13.9658 14.3626 13.9809L14.4128 13.9603ZM11.0829 16.1684C10.7051 16.1657 10.3373 16.0432 10.0298 15.8175V23.3188C10.0298 23.6061 10.1407 23.8817 10.3382 24.0848C10.5357 24.288 10.8036 24.4022 11.0829 24.4022C11.3622 24.4022 11.6301 24.288 11.8275 24.0848C12.025 23.8817 12.136 23.6061 12.136 23.3188V15.8279C11.8178 16.0717 11.4294 16.1988 11.0327 16.189L11.0829 16.1684ZM2.10625 21.9155V0.959578C2.10361 0.704138 2.00311 0.460087 1.82659 0.280422C1.65007 0.100757 1.41177 -1.44542e-05 1.16345 1.55506e-09H0.942797C0.69448 -1.44542e-05 0.456184 0.100757 0.279661 0.280422C0.103138 0.460087 0.00264167 0.704138 0 0.959578V21.9155C0 22.1727 0.0993305 22.4194 0.276139 22.6013C0.452948 22.7832 0.692752 22.8854 0.942797 22.8854H1.16345C1.4135 22.8854 1.6533 22.7832 1.83011 22.6013C2.00692 22.4194 2.10625 22.1727 2.10625 21.9155ZM4.49333 20.3884H4.27268C4.02263 20.3884 3.78283 20.2863 3.60602 20.1044C3.42921 19.9225 3.32988 19.6758 3.32988 19.4185V3.45654C3.33252 3.2011 3.43302 2.95705 3.60954 2.77738C3.78606 2.59772 4.02436 2.49695 4.27268 2.49697H4.49333C4.74165 2.49695 4.97994 2.59772 5.15647 2.77738C5.33299 2.95705 5.43349 3.2011 5.43613 3.45654V19.4392C5.43613 19.6964 5.3368 19.9431 5.15999 20.125C4.98318 20.3069 4.74338 20.4091 4.49333 20.4091V20.3884ZM7.81318 17.9327H7.5825C7.33511 17.9327 7.09786 17.8316 6.92293 17.6517C6.748 17.4717 6.64973 17.2277 6.64973 16.9732V5.93287C6.6484 5.80599 6.67155 5.6801 6.71783 5.56249C6.76411 5.44487 6.83261 5.33787 6.91936 5.24767C7.00611 5.15747 7.10938 5.08586 7.22321 5.03699C7.33703 4.98813 7.45915 4.96297 7.5825 4.96298H7.81318C8.06148 4.96569 8.29872 5.06908 8.47336 5.25068C8.64801 5.43227 8.74596 5.67742 8.74595 5.93287V16.9732C8.74595 17.2277 8.64767 17.4717 8.47274 17.6517C8.29782 17.8316 8.06056 17.9327 7.81318 17.9327ZM11.133 15.4048H10.9224C10.6741 15.4048 10.4358 15.3041 10.2593 15.1244C10.0827 14.9447 9.98225 14.7007 9.97961 14.4452V8.50206C9.97137 8.36958 9.98966 8.23678 10.0333 8.11186C10.077 7.98695 10.1452 7.87259 10.2335 7.77586C10.3219 7.67914 10.4287 7.60211 10.5472 7.54954C10.6656 7.49697 10.7934 7.46999 10.9224 7.47026H11.1431C11.3931 7.47026 11.6329 7.57244 11.8097 7.75433C11.9865 7.93622 12.0859 8.18292 12.0859 8.44015V14.4246C12.0872 14.5529 12.0638 14.6801 12.017 14.7989C11.9702 14.9178 11.901 15.026 11.8133 15.1171C11.7256 15.2083 11.6212 15.2806 11.5062 15.33C11.3911 15.3794 11.2677 15.4048 11.1431 15.4048H11.133ZM14.4629 13.1865H14.2423C13.9922 13.1865 13.7524 13.0843 13.5756 12.9024C13.3988 12.7205 13.2995 12.4738 13.2995 12.2166V10.6792C13.3021 10.4237 13.4026 10.1797 13.5791 10C13.7556 9.82034 13.9939 9.71958 14.2423 9.71959H14.4629C14.7112 9.71958 14.9495 9.82034 15.126 10C15.3026 10.1797 15.4031 10.4237 15.4057 10.6792V12.2166C15.4057 12.472 15.3078 12.7172 15.1331 12.8988C14.9585 13.0803 14.7212 13.1837 14.4729 13.1865H14.4629Z" fill="#394149"/>
</g>
<defs>
<clipPath id="clip0_0_1">
<rect width="1440" height="5211" fill="white" transform="translate(-749 -745)"/>
</clipPath>
</defs>
</svg>
