<svg width="130" height="31" viewBox="0 0 130 31" fill="none" xmlns="http://www.w3.org/2000/svg">
<path d="M31.2804 7.06787H34.2814V21.9774H31.2804V7.06787Z" fill="#394149"/>
<path d="M35.9622 16.87C35.9622 15.7973 36.271 14.7488 36.8494 13.8573C37.4278 12.9658 38.2498 12.2716 39.2112 11.8625C40.1726 11.4534 41.2301 11.348 42.2496 11.5595C43.2692 11.771 44.2049 12.29 44.9382 13.0507C45.6714 13.8114 46.1692 14.7795 46.3685 15.8323C46.5677 16.8851 46.4594 17.9753 46.0573 18.9645C45.6552 19.9538 44.9774 20.7977 44.1098 21.3891C43.2422 21.9806 42.2239 22.2931 41.184 22.287C40.4942 22.2925 39.8103 22.156 39.1724 21.8853C38.5344 21.6147 37.9553 21.2154 37.4689 20.7109C36.9826 20.2063 36.5988 19.6067 36.3401 18.9472C36.0813 18.2876 35.9529 17.5814 35.9622 16.87ZM43.4847 16.87C43.4729 16.4076 43.3292 15.959 43.0715 15.5803C42.8139 15.2017 42.4537 14.9098 42.036 14.7412C41.6184 14.5726 41.1618 14.5348 40.7234 14.6324C40.285 14.73 39.8842 14.9588 39.5712 15.2902C39.2582 15.6215 39.0469 16.0407 38.9636 16.4953C38.8804 16.9498 38.9289 17.4196 39.1032 17.8459C39.2774 18.2722 39.5697 18.636 39.9433 18.8919C40.317 19.1477 40.7555 19.2843 41.204 19.2844C41.5093 19.2906 41.8127 19.2317 42.0949 19.1114C42.3772 18.9912 42.6325 18.8122 42.8446 18.5856C43.0568 18.359 43.2214 18.0896 43.3281 17.7945C43.4348 17.4993 43.4813 17.1846 43.4647 16.87H43.4847Z" fill="#394149"/>
<path d="M58.2797 11.7626V21.4718C58.2797 24.8974 55.6788 26.3523 53.0479 26.3523C52.1199 26.4308 51.1891 26.2406 50.3603 25.8032C49.5314 25.3657 48.8374 24.6982 48.3563 23.8759L50.8872 22.3695C51.0923 22.796 51.4185 23.1479 51.8224 23.3783C52.2263 23.6087 52.6887 23.7067 53.1479 23.6593C53.4405 23.6964 53.7374 23.6665 54.0175 23.5715C54.2975 23.4765 54.5537 23.3189 54.7678 23.1099C54.9819 22.9009 55.1486 22.6457 55.2559 22.3625C55.3633 22.0793 55.4086 21.7752 55.3887 21.4718V20.5329C55.0395 20.9696 54.5964 21.3164 54.0945 21.5456C53.5927 21.7749 53.046 21.8803 52.4977 21.8536C51.1712 21.8536 49.899 21.3101 48.961 20.3426C48.023 19.3751 47.496 18.0628 47.496 16.6946C47.496 15.3263 48.023 14.0141 48.961 13.0466C49.899 12.0791 51.1712 11.5356 52.4977 11.5356C53.046 11.5088 53.5927 11.6143 54.0945 11.8435C54.5964 12.0728 55.0395 12.4195 55.3887 12.8563V11.8245L58.2797 11.7626ZM55.3887 16.6636C55.4087 16.17 55.285 15.6815 55.0336 15.2609C54.7822 14.8403 54.4146 14.5069 53.9781 14.3036C53.5415 14.1002 53.056 14.0362 52.5839 14.1198C52.1118 14.2034 51.6747 14.4307 51.3288 14.7726C50.983 15.1144 50.7442 15.5552 50.6432 16.0381C50.5421 16.5211 50.5835 17.0242 50.7619 17.4827C50.9403 17.9412 51.2476 18.3342 51.6443 18.6112C52.0409 18.8881 52.5089 19.0363 52.9879 19.0368C53.3004 19.06 53.6143 19.0153 53.9091 18.9057C54.2038 18.796 54.4731 18.6238 54.6993 18.4002C54.9256 18.1765 55.1038 17.9064 55.2226 17.6073C55.3413 17.3082 55.3979 16.9867 55.3887 16.6636Z" fill="#394149"/>
<path d="M59.9702 16.87C59.9702 15.7982 60.2784 14.7504 60.856 13.8594C61.4335 12.9683 62.2543 12.2741 63.2145 11.8644C64.1747 11.4547 65.2312 11.348 66.2502 11.5578C67.2692 11.7677 68.205 12.2846 68.9391 13.0433C69.6731 13.8019 70.1725 14.768 70.374 15.8195C70.5755 16.871 70.4701 17.9605 70.0711 18.9501C69.672 19.9397 68.9974 20.785 68.1324 21.379C67.2674 21.973 66.2511 22.289 65.2119 22.2869C64.5209 22.2939 63.8354 22.1584 63.1958 21.8885C62.5561 21.6186 61.9752 21.2196 61.4869 20.7151C60.9987 20.2106 60.6131 19.6106 60.3526 18.9503C60.0922 18.29 59.9621 17.5828 59.9702 16.87ZM67.4927 16.87C67.4809 16.4071 67.3369 15.9581 67.0788 15.5792C66.8206 15.2004 66.4599 14.9085 66.0416 14.7402C65.6234 14.572 65.1663 14.5347 64.7277 14.6332C64.289 14.7317 63.8883 14.9615 63.5757 15.2939C63.2631 15.6262 63.0526 16.0463 62.9704 16.5016C62.8883 16.9568 62.9383 17.4269 63.1141 17.853C63.2898 18.2791 63.5836 18.6422 63.9586 18.8968C64.3335 19.1514 64.773 19.2863 65.2219 19.2844C65.5273 19.2905 65.8306 19.2316 66.1129 19.1114C66.3952 18.9911 66.6504 18.8121 66.8626 18.5855C67.0748 18.3589 67.2394 18.0896 67.3461 17.7944C67.4528 17.4992 67.4993 17.1845 67.4827 16.87H67.4927Z" fill="#394149"/>
<path d="M71.8447 9.02826C71.8447 8.66502 71.9492 8.30992 72.1448 8.00789C72.3405 7.70587 72.6186 7.47046 72.9439 7.33145C73.2693 7.19245 73.6273 7.15608 73.9727 7.22694C74.3181 7.29781 74.6354 7.47273 74.8844 7.72958C75.1334 7.98644 75.303 8.31369 75.3717 8.66996C75.4404 9.02622 75.4052 9.39551 75.2704 9.7311C75.1356 10.0667 74.9074 10.3535 74.6146 10.5553C74.3218 10.7572 73.9775 10.8649 73.6253 10.8649C73.1547 10.8595 72.7048 10.6643 72.372 10.321C72.0392 9.97773 71.8499 9.5137 71.8447 9.02826ZM72.1348 11.7625H75.1358V21.9774H72.1348V11.7625Z" fill="#394149"/>
<path d="M87.9799 16.87C88.0135 17.5494 87.9166 18.2289 87.6946 18.8694C87.4727 19.51 87.1301 20.0989 86.6866 20.6024C86.2431 21.1058 85.7075 21.5139 85.1105 21.803C84.5136 22.0921 83.8671 22.2566 83.2083 22.287C82.6492 22.3253 82.0889 22.233 81.5693 22.0168C81.0497 21.8006 80.5841 21.4662 80.2073 21.0385V26.084H77.2062V11.7626H80.2073V12.7222C80.5846 12.2957 81.0505 11.9628 81.5702 11.7484C82.0899 11.534 82.6499 11.4436 83.2083 11.484C83.8644 11.5145 84.5084 11.678 85.1033 11.9651C85.6982 12.2523 86.2325 12.6575 86.6755 13.1577C87.1186 13.6578 87.4619 14.2431 87.6857 14.88C87.9095 15.517 88.0094 16.1932 87.9799 16.87ZM84.9789 16.87C84.967 16.3908 84.8184 15.9258 84.5514 15.5334C84.2845 15.141 83.9112 14.8385 83.4783 14.664C83.0455 14.4895 82.5723 14.4506 82.1181 14.5523C81.6639 14.654 81.249 14.8916 80.9252 15.2355C80.6014 15.5795 80.3832 16.0143 80.298 16.4855C80.2128 16.9568 80.2644 17.4435 80.4462 17.8847C80.6281 18.3258 80.9321 18.7018 81.3202 18.9655C81.7084 19.2292 82.1633 19.3689 82.6281 19.367C82.9464 19.3809 83.264 19.3253 83.56 19.2037C83.8561 19.0822 84.1238 18.8975 84.3458 18.6617C84.5678 18.4259 84.7389 18.1444 84.848 17.8357C84.9571 17.5269 85.0017 17.1978 84.9789 16.87Z" fill="#394149"/>
<path d="M97.1133 18.913C97.1133 21.2655 95.1126 22.2663 92.9919 22.2663C92.127 22.3466 91.2585 22.1575 90.4989 21.7234C89.7392 21.2893 89.1232 20.6302 88.7305 19.8313L91.3113 18.3248C91.4136 18.693 91.6353 19.0138 91.9394 19.2335C92.2435 19.4533 92.6115 19.5587 92.9819 19.532C93.6921 19.532 94.0523 19.305 94.0523 18.8923C94.0523 17.7677 89.1806 18.3661 89.1806 14.827C89.1806 12.5983 91.0012 11.484 93.0619 11.484C93.8452 11.4478 94.6234 11.6311 95.3138 12.0144C96.0043 12.3977 96.5812 12.9668 96.9833 13.6611L94.4024 15.0643C94.2884 14.7981 94.1021 14.5717 93.866 14.4124C93.6299 14.2531 93.3541 14.1678 93.0719 14.1667C92.5518 14.1667 92.2417 14.373 92.2417 14.7342C92.2417 15.9104 97.1133 15.1366 97.1133 18.913Z" fill="#394149"/>
<path d="M107.986 11.7626V21.9774H104.985V21.0179C104.645 21.4426 104.212 21.7788 103.722 21.9992C103.232 22.2197 102.698 22.3182 102.165 22.287C100.164 22.287 98.4532 20.8115 98.4532 18.0566V11.7626H101.454V17.5923C101.431 17.836 101.459 18.0821 101.536 18.3136C101.614 18.545 101.739 18.7564 101.904 18.933C102.068 19.1096 102.268 19.2472 102.489 19.3364C102.711 19.4256 102.948 19.4642 103.185 19.4495C104.265 19.4495 105.025 18.7892 105.025 17.3859V11.7626H107.986Z" fill="#394149"/>
<path d="M124.992 15.704V21.9773H121.991V15.9722C121.991 14.9404 121.521 14.3007 120.57 14.3007C119.62 14.3007 119.02 15.0127 119.02 16.2199V21.9773H116.019V15.9722C116.019 14.9404 115.549 14.3007 114.598 14.3007C113.648 14.3007 113.048 15.0127 113.048 16.2199V21.9773H110.047V11.7625H113.048V12.7014C113.359 12.2866 113.765 11.9581 114.229 11.7455C114.694 11.533 115.202 11.443 115.709 11.4839C116.216 11.4566 116.722 11.5659 117.176 11.801C117.63 12.0362 118.018 12.3892 118.3 12.8252C118.629 12.3696 119.066 12.0076 119.568 11.7731C120.07 11.5385 120.621 11.439 121.171 11.4839C123.511 11.4839 124.992 13.1554 124.992 15.704Z" fill="#394149"/>
<path d="M13.4045 4.38517V0H0V30.1287H13.4045V25.7435C10.6586 25.7435 8.02516 24.6184 6.0835 22.6156C4.14185 20.6129 3.05103 17.8966 3.05103 15.0643C3.05103 12.232 4.14185 9.51575 6.0835 7.51302C8.02516 5.51029 10.6586 4.38517 13.4045 4.38517Z" fill="#394149"/>
<path d="M13.4044 4.38513V25.7435C16.1504 25.7435 18.7838 24.6183 20.7255 22.6156C22.6671 20.6129 23.7579 17.8966 23.7579 15.0643C23.7579 12.232 22.6671 9.51572 20.7255 7.51299C18.7838 5.51025 16.1504 4.38513 13.4044 4.38513Z" fill="#394149"/>
<path d="M127.513 11.7C128.729 11.7 129.714 10.6838 129.714 9.43032C129.714 8.17681 128.729 7.16064 127.513 7.16064C126.298 7.16064 125.312 8.17681 125.312 9.43032C125.312 10.6838 126.298 11.7 127.513 11.7Z" fill="#394149"/>
</svg>
