<svg width="126" height="34" viewBox="0 0 126 34" fill="none" xmlns="http://www.w3.org/2000/svg">
<rect width="126" height="34" fill="#1E1E1E"/>
<g clip-path="url(#clip0_0_1)">
<rect width="1440" height="5211" transform="translate(-548 -743)" fill="white"/>
<rect x="-548" y="-94" width="1440" height="222.154" fill="#5046E5" fill-opacity="0.1"/>
<path d="M20.3877 8.07896H22.3787V22.4417H28.3518V24.5053H20.3877V8.07896ZM34.5538 8.07896C35.7351 8.07896 36.89 8.44205 37.8722 9.1223C38.8545 9.80256 39.6201 10.7694 40.0722 11.9007C40.5242 13.0319 40.6425 14.2767 40.4121 15.4776C40.1816 16.6785 39.6127 17.7816 38.7774 18.6474C37.942 19.5132 36.8777 20.1028 35.7191 20.3416C34.5604 20.5805 33.3594 20.4579 32.268 19.9894C31.1766 19.5208 30.2437 18.7273 29.5874 17.7092C28.931 16.6911 28.5807 15.4942 28.5807 14.2698C28.5807 13.4568 28.7352 12.6518 29.0354 11.9007C29.3356 11.1496 29.7755 10.4671 30.3302 9.89221C30.8848 9.31734 31.5433 8.86133 32.268 8.55021C32.9927 8.23909 33.7694 8.07896 34.5538 8.07896ZM34.5538 18.397C35.3413 18.397 36.1112 18.1549 36.7661 17.7014C37.4209 17.2479 37.9313 16.6033 38.2327 15.8492C38.5341 15.095 38.6129 14.2652 38.4593 13.4646C38.3056 12.664 37.9264 11.9286 37.3695 11.3514C36.8126 10.7742 36.1031 10.3811 35.3306 10.2219C34.5582 10.0626 33.7575 10.1444 33.0299 10.4567C32.3023 10.7691 31.6804 11.2981 31.2428 11.9768C30.8053 12.6555 30.5717 13.4535 30.5717 14.2698C30.577 15.3608 30.9989 16.4053 31.7451 17.1748C32.4913 17.9444 33.5011 18.3764 34.5538 18.3764V18.397ZM30.5717 22.4623H38.5358V24.5259H30.5717V22.4623ZM56.0567 24.5259H54.0657V23.0504C52.7817 23.982 51.2528 24.4826 49.6855 24.4846C48.349 24.4939 47.0318 24.1544 45.8552 23.4975C44.6785 22.8405 43.6803 21.8872 42.9525 20.7254C42.2247 19.5635 41.7908 18.2306 41.6906 16.8492C41.5904 15.4679 41.8272 14.0827 42.3792 12.8211C42.9312 11.5596 43.7806 10.4623 44.8493 9.63035C45.9179 8.79843 47.1713 8.25863 48.4941 8.06068C49.8169 7.86273 51.1665 8.01299 52.4185 8.49763C53.6705 8.98227 54.7848 9.78569 55.6586 10.8339L54.1952 12.1855C53.5306 11.4154 52.6906 10.83 51.7518 10.4825C50.813 10.1351 49.8053 10.0367 48.8204 10.1963C47.8355 10.3559 46.9048 10.7684 46.1132 11.3963C45.3215 12.0242 44.6941 12.8475 44.288 13.7911C43.882 14.7347 43.7103 15.7686 43.7885 16.7986C43.8667 17.8286 44.1924 18.822 44.7359 19.6881C45.2794 20.5542 46.0234 21.2656 46.9001 21.7574C47.7768 22.2491 48.7583 22.5057 49.7552 22.5036C50.5825 22.5053 51.4004 22.3219 52.153 21.9657C52.9055 21.6095 53.575 21.0891 54.1155 20.44H48.7398V18.3764H56.0767L56.0567 24.5259ZM63.3837 8.12023C64.565 8.12023 65.7199 8.48332 66.7021 9.16357C67.6844 9.84383 68.45 10.8107 68.9021 11.9419C69.3542 13.0732 69.4724 14.3179 69.242 15.5188C69.0115 16.7197 68.4426 17.8228 67.6073 18.6886C66.7719 19.5544 65.7076 20.144 64.549 20.3829C63.3903 20.6218 62.1893 20.4992 61.0979 20.0306C60.0065 19.5621 59.0736 18.7686 58.4173 17.7505C57.761 16.7324 57.4106 15.5355 57.4106 14.3111C57.4054 13.4929 57.5566 12.6817 57.8557 11.9245C58.1548 11.1672 58.5957 10.479 59.153 9.89944C59.7103 9.31992 60.3729 8.86064 61.1025 8.54816C61.832 8.23569 62.6142 8.07621 63.4036 8.07896L63.3837 8.12023ZM63.3837 18.4383C64.1713 18.4383 64.9411 18.1962 65.596 17.7427C66.2508 17.2892 66.7612 16.6446 67.0626 15.8905C67.364 15.1363 67.4429 14.3065 67.2892 13.5059C67.1356 12.7053 66.7563 11.9699 66.1994 11.3927C65.6425 10.8155 64.933 10.4224 64.1605 10.2631C63.3881 10.1039 62.5875 10.1856 61.8598 10.498C61.1322 10.8104 60.5103 11.3394 60.0728 12.0181C59.6352 12.6968 59.4017 13.4948 59.4017 14.3111C59.4174 15.3985 59.8466 16.4355 60.596 17.1968C61.3453 17.958 62.3543 18.3819 63.4036 18.3764L63.3837 18.4383ZM59.4017 22.5036H67.3657V24.5672H59.4017V22.5036ZM71.4772 8.07896H73.4682V24.4846H71.4772V8.07896ZM76.2257 8.07896H78.2168C78.3193 8.06769 78.4228 8.06769 78.5254 8.07896C79.3592 7.9852 80.2028 8.07451 81.0011 8.34107C81.7994 8.60763 82.5347 9.04546 83.1589 9.62607C83.7831 10.2067 84.2824 10.917 84.6242 11.7109C84.966 12.5048 85.1426 13.3643 85.1426 14.2337C85.1426 15.103 84.966 15.9626 84.6242 16.7564C84.2824 17.5503 83.7831 18.2607 83.1589 18.8413C82.5347 19.4219 81.7994 19.8597 81.0011 20.1263C80.2028 20.3928 79.3592 20.4821 78.5254 20.3884H78.2168V24.5156H76.2257V8.07896ZM78.2168 10.1426V18.3041H78.5254C79.0877 18.3817 79.6596 18.3339 80.2027 18.1639C80.7457 17.9938 81.2475 17.7054 81.6743 17.3181C82.1011 16.9307 82.4431 16.4533 82.6775 15.9178C82.9118 15.3823 83.033 14.801 83.033 14.213C83.033 13.625 82.9118 13.0438 82.6775 12.5083C82.4431 11.9728 82.1011 11.4954 81.6743 11.108C81.2475 10.7206 80.7457 10.4323 80.2027 10.2622C79.6596 10.0921 79.0877 10.0443 78.5254 10.1219C78.4169 10.1336 78.3101 10.1579 78.2068 10.1942L78.2168 10.1426ZM92.562 9.26554L91.0887 10.4727C90.8345 10.1975 90.5098 10.0031 90.1527 9.91249C89.7956 9.82188 89.421 9.83879 89.0728 9.96123C88.7247 10.0837 88.4175 10.3066 88.1874 10.6037C87.9572 10.9009 87.8137 11.2599 87.7736 11.6387V11.8038C87.7736 12.7118 88.3809 13.3205 89.5656 13.4031C94.125 13.692 96.2155 15.9103 96.2155 18.8407V19.0264C96.0978 20.1862 95.6612 21.2865 94.9575 22.1965C94.2539 23.1065 93.3129 23.7879 92.2464 24.1596C91.1799 24.5313 90.0329 24.5777 88.9417 24.2933C87.8505 24.0089 86.8612 23.4056 86.0912 22.5552L87.6143 21.3376C87.9689 21.7314 88.4018 22.0406 88.8832 22.2437C89.3645 22.4468 89.8827 22.539 90.4018 22.5139C91.3606 22.5663 92.3019 22.2327 93.0291 21.5828C93.7562 20.933 94.2131 20.0171 94.3042 19.0264V18.8819C94.3042 16.127 91.6959 15.6214 89.4361 15.3944C87.3456 15.1881 85.8423 13.8364 85.8423 11.8863V11.8038C85.9161 10.7885 86.3631 9.84132 87.0911 9.15778C87.8192 8.47424 88.7726 8.10652 89.7547 8.13055C90.2751 8.11462 90.7929 8.212 91.2748 8.41638C91.7566 8.62077 92.1918 8.92762 92.5521 9.31712L92.562 9.26554ZM104.01 22.3901C106.489 22.3901 108.45 19.6145 108.45 16.1993V7.94482H110.441V16.1993C110.441 20.7392 107.574 24.4021 104.05 24.4021C100.526 24.4021 97.659 20.7392 97.659 16.1993V7.94482H99.65V16.1993C99.5704 19.6661 101.532 22.4417 104 22.4417L104.01 22.3901ZM125.722 24.4537H123.731V14.2388L119.142 20.4297L114.553 14.2388V24.4846H112.562V8.07896L119.132 17.0453L125.702 8.07896L125.722 24.4537Z" fill="#394149"/>
<path d="M10.8311 5.61301C10.8311 4.12435 10.2606 2.69666 9.24494 1.64401C8.22933 0.591368 6.85186 0 5.41556 0C3.97927 0 2.6018 0.591368 1.58618 1.64401C0.570567 2.69666 0 4.12435 0 5.61301V22.5862L4.45988 25.8983V33.967H6.37125V25.8983L10.8311 22.5862V5.61301ZM8.91975 15.1056L6.37125 17.747V15.2707L8.91975 12.6293V15.1056ZM1.95119 12.6293L4.4997 15.2707V17.747L1.95119 15.1056V12.6293ZM8.91975 9.82277L5.41556 13.4547L1.91138 9.74022V7.26389L5.41556 10.8958L8.91975 7.26389V9.82277ZM5.41556 1.98106C6.18623 1.9846 6.93454 2.24988 7.54587 2.73627C8.15719 3.22266 8.59783 3.90335 8.80029 4.67407L5.41556 8.17188L2.03084 4.67407C2.22589 3.89568 2.66335 3.20577 3.27535 2.71138C3.88734 2.21699 4.63966 1.94577 5.41556 1.93979V1.98106ZM1.91138 21.5853V17.8708L4.45988 20.5123V23.4632L1.91138 21.5853ZM6.37125 23.4735V20.5123L8.91975 17.8708V21.575L6.37125 23.4735Z" fill="#394149"/>
</g>
<defs>
<clipPath id="clip0_0_1">
<rect width="1440" height="5211" fill="white" transform="translate(-548 -743)"/>
</clipPath>
</defs>
</svg>
