<svg width="118" height="28" viewBox="0 0 118 28" fill="none" xmlns="http://www.w3.org/2000/svg">
<rect width="118" height="28" fill="#1E1E1E"/>
<g clip-path="url(#clip0_0_1)">
<rect width="1440" height="5211" transform="translate(-355 -746)" fill="white"/>
<rect x="-355" y="-97" width="1440" height="222.154" fill="#5046E5" fill-opacity="0.1"/>
<path d="M34.0987 7.8841H37.0725V20.3999H34.0987V7.8841ZM38.2521 15.6742C38.2521 12.5788 40.076 10.7319 42.8913 10.7319C45.7065 10.7319 47.5304 12.5788 47.5304 15.6742C47.5304 18.7696 45.7461 20.6269 42.8913 20.6269C40.0364 20.6269 38.2521 18.8212 38.2521 15.6742ZM44.5467 15.6742C44.5467 13.9717 43.9024 12.9709 42.8913 12.9709C41.8802 12.9709 41.2458 14.0027 41.2458 15.6742C41.2458 17.3457 41.8703 18.3569 42.8913 18.3569C43.9123 18.3569 44.5467 17.4076 44.5467 15.6845V15.6742ZM48.6506 21.0086H51.5054C51.6413 21.3228 51.871 21.5829 52.1604 21.7503C52.4497 21.9176 52.7833 21.9832 53.1113 21.9373C54.2414 21.9373 54.8361 21.2975 54.8361 20.3689V18.6355H54.7767C54.5397 19.1668 54.1553 19.6119 53.6729 19.9136C53.1905 20.2152 52.6324 20.3594 52.0705 20.3276C49.8996 20.3276 48.4622 18.6045 48.4622 15.6433C48.4622 12.682 49.8302 10.8144 52.1101 10.8144C52.6896 10.7908 53.2622 10.952 53.7512 11.2766C54.2402 11.6012 54.6222 12.0735 54.846 12.6304V10.9073H57.8199V20.2967C57.8199 22.5563 55.9067 23.9596 53.0816 23.9596C50.4547 23.9596 48.8191 22.7318 48.6506 21.019V21.0086ZM54.846 15.6639C54.846 14.1575 54.1819 13.2082 53.1311 13.2082C52.0804 13.2082 51.4361 14.1471 51.4361 15.6639C51.4361 17.1806 52.0705 18.037 53.1311 18.037C54.1918 18.037 54.846 17.2013 54.846 15.6742V15.6639ZM58.94 15.6639C58.94 12.5685 60.764 10.7216 63.5792 10.7216C66.3944 10.7216 68.2283 12.5685 68.2283 15.6639C68.2283 18.7593 66.444 20.6166 63.5792 20.6166C60.7144 20.6166 58.94 18.8212 58.94 15.6742V15.6639ZM65.2346 15.6639C65.2346 13.9614 64.5903 12.9606 63.5792 12.9606C62.5681 12.9606 61.9832 14.0027 61.9832 15.6845C61.9832 17.3664 62.6077 18.3672 63.6188 18.3672C64.6299 18.3672 65.2346 17.4076 65.2346 15.6845V15.6639ZM69.3583 8.65795C69.3505 8.34542 69.432 8.03752 69.5926 7.77328C69.7531 7.50905 69.9854 7.30037 70.26 7.1737C70.5346 7.04704 70.8391 7.00809 71.135 7.0618C71.4309 7.11551 71.7048 7.25946 71.922 7.47539C72.1392 7.69133 72.2899 7.96952 72.355 8.27472C72.4201 8.57992 72.3967 8.89837 72.2878 9.1897C72.1788 9.48103 71.9892 9.73213 71.743 9.91116C71.4967 10.0902 71.205 10.1891 70.9047 10.1953C70.7056 10.2096 70.5059 10.1808 70.318 10.1108C70.1301 10.0409 69.9582 9.93125 69.813 9.78881C69.6678 9.64637 69.5524 9.47422 69.4742 9.28316C69.3959 9.0921 69.3565 8.88627 69.3583 8.67858V8.65795ZM69.3583 10.9279H72.3321V20.3999H69.3583V10.9279ZM83.1271 15.6639C83.1271 18.7593 81.8087 20.5237 79.5486 20.5237C78.9691 20.5624 78.3921 20.4149 77.8957 20.1012C77.3993 19.7875 77.0074 19.3227 76.773 18.7696H76.7136V23.4334H73.7397V10.9073H76.7136V12.5994H76.773C76.9965 12.0372 77.3809 11.5603 77.874 11.2335C78.367 10.9068 78.9448 10.746 79.5288 10.7731C81.8087 10.8144 83.1668 12.5891 83.1668 15.6845L83.1271 15.6639ZM80.1533 15.6639C80.1533 14.1575 79.4891 13.1979 78.4483 13.1979C77.4075 13.1979 76.7433 14.1678 76.7334 15.6639C76.7235 17.16 77.4075 18.1196 78.4483 18.1196C79.4891 18.1196 80.1533 17.1806 80.1533 15.6845V15.6639ZM88.2322 10.7112C90.7005 10.7112 92.1973 11.9288 92.2667 13.8789H89.5605C89.5605 13.2082 89.0252 12.7852 88.2024 12.7852C87.3797 12.7852 87.0129 13.1153 87.0129 13.6003C87.0129 14.0852 87.34 14.24 88.0042 14.3845L89.9074 14.7869C91.7215 15.1893 92.4947 15.9528 92.4947 17.387C92.4947 19.3474 90.7798 20.6062 88.252 20.6062C85.7243 20.6062 84.0688 19.3474 83.94 17.418H86.8047C86.894 18.1196 87.4292 18.5323 88.3016 18.5323C89.1739 18.5323 89.5704 18.2331 89.5704 17.7378C89.5704 17.2426 89.2928 17.1394 88.5791 16.9846L86.8642 16.6028C85.0898 16.2211 84.158 15.2409 84.158 13.7963C84.1779 11.9391 85.7738 10.7319 88.2322 10.7319V10.7112ZM102.417 20.3792H99.5525V18.6149H99.4931C99.3356 19.2072 98.9882 19.7257 98.5085 20.0842C98.0289 20.4427 97.4459 20.6196 96.8563 20.5856C96.4045 20.6123 95.9524 20.5378 95.5306 20.3671C95.1089 20.1963 94.7272 19.9334 94.4115 19.5959C94.0957 19.2584 93.8533 18.8544 93.7004 18.411C93.5476 17.9676 93.488 17.4953 93.5256 17.0259V10.9073H96.4994V16.3139C96.4994 17.4386 97.0545 18.037 97.9764 18.037C98.1926 18.0375 98.4064 17.9899 98.6034 17.8973C98.8004 17.8047 98.9762 17.6694 99.1189 17.5004C99.2616 17.3313 99.3679 17.1325 99.4307 16.9172C99.4935 16.7019 99.5114 16.4751 99.4832 16.252V10.9073H102.457L102.417 20.3792ZM103.855 10.9073H106.729V12.7336H106.789C106.947 12.149 107.286 11.6355 107.754 11.2733C108.223 10.911 108.793 10.7207 109.376 10.7319C109.969 10.6824 110.559 10.8673 111.027 11.2496C111.496 11.632 111.809 12.1839 111.904 12.7955H111.963C112.143 12.1774 112.515 11.6391 113.022 11.2655C113.528 10.8919 114.139 10.7041 114.759 10.7319C115.163 10.7177 115.566 10.7923 115.941 10.9508C116.316 11.1092 116.654 11.348 116.935 11.6516C117.215 11.9552 117.431 12.3169 117.569 12.713C117.706 13.1092 117.762 13.531 117.733 13.9511V20.3999H114.759V14.7765C114.759 13.7447 114.313 13.2701 113.48 13.2701C113.294 13.2685 113.11 13.3083 112.941 13.3869C112.771 13.4655 112.62 13.5811 112.497 13.7259C112.374 13.8706 112.282 14.0411 112.227 14.2259C112.173 14.4107 112.157 14.6055 112.181 14.7972V20.3999H109.356V14.7353C109.356 13.786 108.91 13.2701 108.097 13.2701C107.91 13.2702 107.724 13.3117 107.553 13.3919C107.381 13.4721 107.228 13.5892 107.104 13.7355C106.979 13.8817 106.886 14.0538 106.83 14.2404C106.774 14.4269 106.757 14.6237 106.779 14.8178V20.3999H103.805L103.855 10.9073Z" fill="#394149"/>
<path d="M25.782 8.45169C25.2775 7.25104 24.6098 6.13213 23.7994 5.12928C22.6014 3.60256 21.1064 2.35723 19.4127 1.47526C17.719 0.593286 15.8651 0.0946668 13.9729 0.0122174C12.0808 -0.070232 10.1933 0.265356 8.43469 0.996899C6.67611 1.72844 5.0863 2.83935 3.76991 4.25651C2.45352 5.67367 1.44039 7.36494 0.797201 9.21902C0.154011 11.0731 -0.104656 13.0479 0.0382282 15.0136C0.181112 16.9792 0.722306 18.8911 1.62619 20.6233C2.53007 22.3555 3.77615 23.8689 5.28241 25.0637C6.24891 25.8457 7.31686 26.4814 8.45449 26.9519C10.0495 27.6323 11.7565 27.9827 13.4803 27.9837C17.0383 27.9755 20.4482 26.4993 22.9622 23.8785C25.4763 21.2578 26.8896 17.7064 26.8922 14.0028C26.8948 12.0924 26.5168 10.2023 25.782 8.45169ZM13.4703 2.84899C15.0183 2.84882 16.5475 3.20098 17.9509 3.8808C17.6087 4.03471 17.2489 4.14221 16.8803 4.20066C15.6676 4.38338 14.5442 4.96943 13.6777 5.87132C12.8112 6.77322 12.2482 7.94259 12.0726 9.2049C11.9956 9.91284 11.6863 10.5714 11.1969 11.0696C10.7075 11.5677 10.068 11.8748 9.38629 11.9392C8.17356 12.1219 7.05012 12.708 6.18365 13.6098C5.31718 14.5117 4.75416 15.6811 4.57861 16.9434C4.51917 17.6166 4.24325 18.2491 3.7955 18.7388C3.02295 17.0397 2.67591 15.1647 2.78665 13.2885C2.8974 11.4122 3.46233 9.59564 4.42889 8.00775C5.39545 6.41986 6.73222 5.11227 8.31479 4.20669C9.89736 3.30111 11.6743 2.82695 13.4803 2.82836L13.4703 2.84899ZM5.2725 21.2254C5.39145 21.1119 5.51041 21.0087 5.62936 20.8849C6.51125 19.9949 7.07733 18.8201 7.23522 17.5522C7.29924 16.8395 7.60497 16.1738 8.09763 15.6743C8.57171 15.1606 9.20981 14.8451 9.89184 14.787C11.1046 14.6042 12.228 14.0182 13.0945 13.1163C13.9609 12.2144 14.524 11.045 14.6995 9.78271C14.7424 9.03725 15.0497 8.33493 15.5619 7.81197C16.0477 7.30829 16.6919 7.00417 17.376 6.95557C18.4901 6.79602 19.5291 6.28048 20.3498 5.48009C21.2842 6.28704 22.0759 7.25778 22.6892 8.34851C22.6515 8.40149 22.6083 8.44994 22.5603 8.49296C22.0872 9.01113 21.4499 9.33363 20.7661 9.40095C19.5521 9.58048 18.427 10.1655 17.56 11.068C16.693 11.9705 16.1309 13.1416 15.9584 14.4052C15.8886 15.1155 15.5849 15.7789 15.099 16.2828C14.613 16.7868 13.9746 17.1004 13.2919 17.1704C12.0756 17.3518 10.948 17.9366 10.0765 18.8382C9.20504 19.7397 8.63619 20.9098 8.45449 22.1747C8.40114 22.6789 8.23477 23.1631 7.96876 23.5882C6.95171 22.9597 6.04082 22.1615 5.2725 21.2254ZM13.4703 25.2082C12.4645 25.2093 11.4634 25.0634 10.4965 24.7748C10.8273 24.133 11.0423 23.4336 11.1309 22.7112C11.2004 22.0025 11.5026 21.3404 11.9866 20.8366C12.4706 20.3329 13.1066 20.0183 13.7875 19.946C15.0021 19.7653 16.1278 19.1802 16.9962 18.2781C17.8646 17.376 18.4291 16.2055 18.6051 14.9417C18.6746 14.233 18.9768 13.5709 19.4608 13.0671C19.9448 12.5634 20.5809 12.2488 21.2618 12.1765C22.1757 12.0528 23.0469 11.6986 23.7994 11.1447C24.2173 12.7934 24.2668 14.5199 23.9441 16.1916C23.6214 17.8633 22.9352 19.4359 21.9379 20.7887C20.9407 22.1415 19.659 23.2386 18.1912 23.9957C16.7234 24.7528 15.1085 25.15 13.4703 25.1566V25.2082Z" fill="#394149"/>
</g>
<defs>
<clipPath id="clip0_0_1">
<rect width="1440" height="5211" fill="white" transform="translate(-355 -746)"/>
</clipPath>
</defs>
</svg>
