<svg width="48" height="20" viewBox="0 0 48 20" fill="none" xmlns="http://www.w3.org/2000/svg">
<path d="M16.9042 6.87109H18.7461V19.9867H16.9042V6.87109Z" fill="#5046E5"/>
<path d="M24.6114 3.43566V6.87131H28.5435V8.70018H24.6114V19.9869H22.7695V8.70018H20.9667V6.87131H22.7695V3.44872C22.7695 2.80862 22.9262 2.23383 23.2398 1.7113C23.5533 1.18876 23.9713 0.770737 24.4938 0.470281C25.0164 0.156761 25.6042 0 26.2443 0C26.7015 0 27.1588 0.0914441 27.5898 0.274331C28.0209 0.457217 28.4128 0.731549 28.7525 1.08426L27.4461 2.37753C27.3025 2.2077 27.1326 2.06401 26.9106 1.97256C26.7015 1.88112 26.4795 1.82887 26.2443 1.82887C25.8002 1.82887 25.4213 1.98563 25.0947 2.29915C24.7682 2.61267 24.6114 2.99151 24.6114 3.43566Z" fill="#5046E5"/>
<path d="M33.716 3.43566V6.87131H37.6481V8.70018H33.716V19.9869H31.8741V8.70018H30.0714V6.87131H31.8741V3.44872C31.8741 2.80862 32.0308 2.23383 32.3444 1.7113C32.6579 1.18876 33.0759 0.770737 33.5984 0.470281C34.121 0.156761 34.7088 0 35.3489 0C35.8062 0 36.2634 0.0914441 36.6945 0.274331C37.1255 0.457217 37.5175 0.731549 37.8571 1.08426L36.5508 2.37753C36.4071 2.2077 36.2372 2.06401 36.0152 1.97256C35.8062 1.88112 35.5841 1.82887 35.3489 1.82887C34.9048 1.82887 34.5259 1.98563 34.1994 2.29915C33.8728 2.61267 33.716 2.99151 33.716 3.43566Z" fill="#5046E5"/>
<path d="M40.1045 19.9872V6.87163H41.9464V8.68743C42.4036 8.0212 43.0176 7.49867 43.7622 7.09371C44.5068 6.70181 45.3168 6.50586 46.192 6.50586C46.7015 6.50586 47.1848 6.57118 47.6551 6.70181L46.9105 8.53068C46.5447 8.41311 46.1789 8.36085 45.8393 8.36085C45.1339 8.36085 44.4807 8.53067 43.8929 8.88338C43.305 9.23609 42.8347 9.70637 42.482 10.2812C42.1293 10.869 41.9595 11.5222 41.9595 12.2407V20.0003H40.1045V19.9872Z" fill="#5046E5"/>
<path d="M11.8876 8.60881C10.6336 7.2241 8.83081 6.34886 6.81906 6.34886C3.05682 6.34886 0 9.40568 0 13.1679C0 16.9302 3.05682 19.987 6.81906 19.987C8.83081 19.987 10.6466 19.1117 11.8876 17.727V19.987H13.7296V0.300537H11.8876V8.60881ZM6.81906 18.0667C4.11495 18.0667 1.92031 15.872 1.92031 13.1679C1.92031 10.4638 4.11495 8.26917 6.81906 8.26917C9.52317 8.26917 11.7178 10.4638 11.7178 13.1679C11.7178 15.872 9.52317 18.0667 6.81906 18.0667Z" fill="#5046E5"/>
<path d="M6.83165 14.984C6.36137 14.984 5.96947 14.8142 5.64289 14.4876C5.31631 14.161 5.15955 13.743 5.15955 13.2466C5.15955 12.7502 5.31631 12.3321 5.64289 11.9925C5.96947 11.6659 6.36137 11.4961 6.83165 11.4961C7.28887 11.4961 7.66771 11.6659 7.99429 11.9925C8.32087 12.3191 8.47763 12.7371 8.47763 13.2466C8.47763 13.743 8.32087 14.161 8.00735 14.4876C7.69383 14.8142 7.30193 14.984 6.83165 14.984Z" fill="#FFCD21"/>
</svg>
